<svg width="355" height="259" viewBox="0 0 355 259" fill="none" xmlns="http://www.w3.org/2000/svg">
<path d="M44.2288 98.0093C44.2288 67.0958 48.8002 46.2462 59.6306 33.118C70.438 20.0178 87.5794 14.4919 113.041 14.4919C138.504 14.4919 155.319 20.0178 165.806 33.1123C176.318 46.2399 180.57 67.0901 180.57 98.0093V191.476H44.2285L44.2285 191.309L44.2285 189.389L44.2286 182.268L44.2287 158.259L44.2288 98.0093Z" fill="url(#paint0_linear_1691_5896)" stroke="white"/>
<line x1="48.6348" y1="67.4398" x2="48.6348" y2="190.468" stroke="white" stroke-width="3" stroke-linecap="round"/>
<line x1="1.5" y1="-1.5" x2="102.472" y2="-1.5" transform="matrix(-0.00457582 0.99999 -0.999989 -0.00464875 62.8691 75.9117)" stroke="white" stroke-width="3" stroke-linecap="round"/>
<line x1="1.5" y1="-1.5" x2="84.3487" y2="-1.5" transform="matrix(0.00601718 0.999982 -0.999981 0.00611308 74.3765 83.7185)" stroke="white" stroke-width="3" stroke-linecap="round"/>
<line x1="1.5" y1="-1.5" x2="32.3205" y2="-1.5" transform="matrix(0.843866 0.536553 -0.530638 0.847599 47.4585 68.4297)" stroke="white" stroke-width="3" stroke-linecap="round"/>
<line x1="1.5" y1="-1.5" x2="28.9716" y2="-1.5" transform="matrix(0.992837 -0.119479 0.118073 0.993005 47.1348 128.954)" stroke="white" stroke-width="3" stroke-linecap="round"/>
<line x1="1.5" y1="-1.5" x2="35.6648" y2="-1.5" transform="matrix(0.747788 -0.663937 0.658052 0.752972 50.5273 193.189)" stroke="white" stroke-width="3" stroke-linecap="round"/>
<line x1="1.5" y1="-1.5" x2="124.528" y2="-1.5" transform="matrix(0 1 1 0 176.638 65.9398)" stroke="white" stroke-width="3" stroke-linecap="round"/>
<line x1="1.5" y1="-1.5" x2="102.472" y2="-1.5" transform="matrix(0.00457582 0.99999 0.999989 -0.00464875 160.903 75.9117)" stroke="white" stroke-width="3" stroke-linecap="round"/>
<line x1="1.5" y1="-1.5" x2="84.3487" y2="-1.5" transform="matrix(-0.00601718 0.999982 0.999981 0.00611308 149.396 83.7184)" stroke="white" stroke-width="3" stroke-linecap="round"/>
<line x1="1.5" y1="-1.5" x2="32.3205" y2="-1.5" transform="matrix(-0.843866 0.536553 0.530638 0.847599 176.314 68.4297)" stroke="white" stroke-width="3" stroke-linecap="round"/>
<line x1="1.5" y1="-1.5" x2="28.9716" y2="-1.5" transform="matrix(-0.992812 -0.119685 -0.11787 0.993029 176.638 128.954)" stroke="white" stroke-width="3" stroke-linecap="round"/>
<line x1="1.5" y1="-1.5" x2="35.6648" y2="-1.5" transform="matrix(-0.747788 -0.663937 -0.658052 0.752972 173.245 193.189)" stroke="white" stroke-width="3" stroke-linecap="round"/>
<line x1="45.6748" y1="65.0518" x2="179.795" y2="65.0518" stroke="white" stroke-width="3"/>
<line x1="1.5" y1="-1.5" x2="57.0606" y2="-1.5" transform="matrix(0.632556 0.774515 -0.782946 0.62209 75.0532 20.5838)" stroke="white" stroke-width="3" stroke-linecap="round"/>
<line x1="1.5" y1="-1.5" x2="57.0605" y2="-1.5" transform="matrix(0.63251 -0.774552 0.782982 0.622044 113.375 65.9408)" stroke="white" stroke-width="3" stroke-linecap="round"/>
<path d="M106.415 146.979C105.262 143.618 105.018 143.237 103.875 143.013C103.222 142.885 102.108 142.877 101.4 142.996C98.772 143.44 97.5901 144.898 95.2195 150.626C92.339 157.585 91.0896 159.536 88.3595 161.341C87.1755 162.123 85.1041 164.243 83.7563 166.051C77.6416 174.254 76.7249 175.569 75.6763 177.632C75.0629 178.84 72.5461 182.234 70.0838 185.176C64.2029 192.201 64.1951 192.212 64.0339 194.217C63.8774 196.162 64.123 196.33 67.8322 196.816C69.9751 197.096 71.1602 196.838 76.2073 194.988C82.9745 192.51 83.9973 192.315 86.472 193.038C87.6998 193.396 89.1907 193.403 91.1045 193.06C92.6562 192.781 94.159 192.701 94.4438 192.881C95.4306 193.504 104.121 192.897 104.876 192.151C105.696 191.342 105.627 191.323 102.249 191.439C99.0069 191.55 97.2795 190.13 97.2795 187.352C97.2795 185.651 97.6534 185.141 101.169 182.036C108.036 175.972 109.265 171.443 106.891 160.954C105.12 153.127 104.735 149.998 105.485 149.541C105.812 149.341 106.461 149.484 106.926 149.857C107.671 150.455 107.723 150.415 107.355 149.52C107.126 148.961 106.703 147.817 106.415 146.979Z" fill="white"/>
<path d="M106.415 146.979C105.262 143.618 105.018 143.237 103.875 143.013C103.222 142.885 102.108 142.877 101.4 142.996C98.772 143.44 97.5901 144.898 95.2195 150.626C92.339 157.585 91.0896 159.536 88.3595 161.341C87.1755 162.123 85.1041 164.243 83.7563 166.051C77.6416 174.254 76.7249 175.569 75.6763 177.632C75.0629 178.84 72.5461 182.234 70.0838 185.176C64.2029 192.201 64.1951 192.212 64.0339 194.217C63.8774 196.162 64.123 196.33 67.8322 196.816C69.9751 197.096 71.1602 196.838 76.2073 194.988C82.9745 192.51 83.9973 192.315 86.472 193.038C87.6998 193.396 89.1907 193.403 91.1045 193.06C92.6562 192.781 94.159 192.701 94.4438 192.881C95.4306 193.504 104.121 192.897 104.876 192.151C105.696 191.342 105.627 191.323 102.249 191.439C99.0069 191.55 97.2795 190.13 97.2795 187.352C97.2795 185.651 97.6534 185.141 101.169 182.036C108.036 175.972 109.265 171.443 106.891 160.954C105.12 153.127 104.735 149.998 105.485 149.541C105.812 149.341 106.461 149.484 106.926 149.857C107.671 150.455 107.723 150.415 107.355 149.52C107.126 148.961 106.703 147.817 106.415 146.979Z" stroke="white"/>
<path d="M224 191.354V256.912H203.69V210.339H20.6045L20.3101 256.912H0L0.294349 191.354H26.1971V90.2C26.1971 61.3271 33.8502 39.2769 49.1564 24.0494C64.6588 8.62416 85.6557 0.91153 112.147 0.91153C138.639 0.91153 159.537 8.62416 174.844 24.0494C190.346 39.2769 198.097 61.3271 198.097 90.2V191.354H224ZM176.315 191.354V88.1236C176.315 65.7767 170.625 48.9671 159.243 37.6948C148.058 26.2248 132.359 20.4897 112.147 20.4897C91.7389 20.4897 75.8441 26.2248 64.4626 37.6948C53.2773 48.9671 47.6846 65.7767 47.6846 88.1236V191.354H176.315Z" fill="white"/>
<path d="M235.02 254.928V255.928H236.02H247.652H248.652V254.928V235.058H262.022C262.619 235.058 263.439 235.029 264.472 234.971C265.52 234.913 266.462 234.825 267.295 234.706L267.295 234.706L267.308 234.704C271.087 234.114 274.252 232.849 276.753 230.867C279.257 228.905 281.103 226.439 282.28 223.482C283.474 220.526 284.063 217.262 284.063 213.701C284.063 210.144 283.489 206.894 282.325 203.967C281.148 200.982 279.303 198.5 276.796 196.536C274.296 194.555 271.119 193.291 267.318 192.7C266.467 192.549 265.512 192.461 264.459 192.431C263.46 192.374 262.645 192.344 262.022 192.344H236.02H235.02V193.344V254.928ZM265.18 221.803L265.18 221.803L265.168 221.806C264.642 221.957 264.052 222.061 263.396 222.113C262.705 222.168 262.076 222.196 261.508 222.196H248.652V205.207H261.508C262.076 205.207 262.705 205.234 263.396 205.289L263.476 204.293L263.396 205.289C264.052 205.342 264.642 205.446 265.168 205.596L265.168 205.596L265.18 205.6C266.594 205.985 267.612 206.618 268.31 207.456L268.31 207.456L268.319 207.467C269.075 208.349 269.586 209.336 269.861 210.437L269.865 210.45L269.868 210.463C270.19 211.614 270.345 212.692 270.345 213.701C270.345 214.711 270.189 215.805 269.867 216.988L269.865 216.995L269.863 217.003C269.589 218.075 269.078 219.067 268.314 219.984C267.617 220.795 266.598 221.416 265.18 221.803ZM306.611 253.048L306.614 253.049C311.271 255.838 316.773 257.211 323.079 257.211C329.385 257.211 334.873 255.838 339.503 253.049C344.148 250.267 347.713 246.373 350.19 241.39C352.695 236.41 353.931 230.649 353.931 224.136C353.931 217.624 352.695 211.863 350.19 206.883C347.713 201.9 344.148 198.005 339.504 195.224C334.873 192.435 329.385 191.061 323.079 191.061C316.773 191.061 311.271 192.435 306.614 195.223L306.611 195.225C301.995 198.006 298.432 201.9 295.927 206.88L295.925 206.884C293.45 211.864 292.228 217.624 292.228 224.136C292.228 230.649 293.45 236.409 295.925 241.389L295.927 241.393C298.432 246.373 301.995 250.267 306.611 253.048ZM337.721 234.961L337.719 234.968C336.503 237.995 334.684 240.293 332.273 241.909C329.886 243.51 326.848 244.318 323.094 244.263C319.333 244.208 316.283 243.346 313.885 241.738C311.469 240.119 309.636 237.844 308.394 234.873C307.172 231.885 306.545 228.314 306.545 224.136C306.545 219.959 307.172 216.357 308.396 213.308C309.64 210.28 311.474 207.98 313.885 206.364C316.273 204.763 319.311 203.955 323.065 204.01C326.826 204.064 329.875 204.927 332.273 206.535C334.689 208.154 336.507 210.427 337.721 213.396L337.724 213.403C338.973 216.39 339.614 219.959 339.614 224.136C339.614 228.313 338.973 231.914 337.721 234.961Z" fill="white" stroke="white" stroke-width="2"/>
<defs>
<linearGradient id="paint0_linear_1691_5896" x1="112.399" y1="13.9919" x2="112.399" y2="191.976" gradientUnits="userSpaceOnUse">
<stop offset="0.46875" stop-color="#8CE8FD"/>
<stop offset="1" stop-color="#2687E1"/>
</linearGradient>
</defs>
</svg>
