<svg width="388" height="258" viewBox="0 0 388 258" fill="none" xmlns="http://www.w3.org/2000/svg">
<path d="M49.2288 97.0978C49.2288 66.1843 53.8002 45.3346 64.6306 32.2065C75.438 19.1063 92.5794 13.5803 118.041 13.5803C143.504 13.5803 160.319 19.1063 170.806 32.2008C181.318 45.3284 185.57 66.1786 185.57 97.0978V190.564H49.2285L49.2285 190.397L49.2285 188.477L49.2286 181.357L49.2287 157.347L49.2288 97.0978Z" fill="url(#paint0_linear_1691_5810)" stroke="white"/>
<line x1="53.6348" y1="66.5283" x2="53.6348" y2="189.557" stroke="white" stroke-width="3" stroke-linecap="round"/>
<line x1="1.5" y1="-1.5" x2="102.472" y2="-1.5" transform="matrix(-0.00457582 0.99999 -0.999989 -0.00464875 67.8691 75)" stroke="white" stroke-width="3" stroke-linecap="round"/>
<line x1="1.5" y1="-1.5" x2="84.3487" y2="-1.5" transform="matrix(0.00601718 0.999982 -0.999981 0.00611308 79.377 82.8071)" stroke="white" stroke-width="3" stroke-linecap="round"/>
<line x1="1.5" y1="-1.5" x2="32.3205" y2="-1.5" transform="matrix(0.843866 0.536553 -0.530638 0.847599 52.459 67.5181)" stroke="white" stroke-width="3" stroke-linecap="round"/>
<line x1="1.5" y1="-1.5" x2="28.9716" y2="-1.5" transform="matrix(0.992837 -0.119479 0.118073 0.993005 52.1348 128.042)" stroke="white" stroke-width="3" stroke-linecap="round"/>
<line x1="1.5" y1="-1.5" x2="35.6648" y2="-1.5" transform="matrix(0.747788 -0.663937 0.658052 0.752972 55.5273 192.277)" stroke="white" stroke-width="3" stroke-linecap="round"/>
<line x1="1.5" y1="-1.5" x2="124.528" y2="-1.5" transform="matrix(0 1 1 0 181.639 65.0283)" stroke="white" stroke-width="3" stroke-linecap="round"/>
<line x1="1.5" y1="-1.5" x2="102.472" y2="-1.5" transform="matrix(0.00457582 0.99999 0.999989 -0.00464875 165.904 75)" stroke="white" stroke-width="3" stroke-linecap="round"/>
<line x1="1.5" y1="-1.5" x2="84.3487" y2="-1.5" transform="matrix(-0.00601718 0.999982 0.999981 0.00611308 154.396 82.8069)" stroke="white" stroke-width="3" stroke-linecap="round"/>
<line x1="1.5" y1="-1.5" x2="32.3205" y2="-1.5" transform="matrix(-0.843866 0.536553 0.530638 0.847599 181.314 67.5181)" stroke="white" stroke-width="3" stroke-linecap="round"/>
<line x1="1.5" y1="-1.5" x2="28.9716" y2="-1.5" transform="matrix(-0.992812 -0.119685 -0.11787 0.993029 181.639 128.042)" stroke="white" stroke-width="3" stroke-linecap="round"/>
<line x1="1.5" y1="-1.5" x2="35.6648" y2="-1.5" transform="matrix(-0.747788 -0.663937 -0.658052 0.752972 178.246 192.277)" stroke="white" stroke-width="3" stroke-linecap="round"/>
<line x1="50.6758" y1="64.1401" x2="184.796" y2="64.1401" stroke="white" stroke-width="3"/>
<line x1="1.5" y1="-1.5" x2="57.0606" y2="-1.5" transform="matrix(0.632556 0.774515 -0.782946 0.62209 80.0547 19.6724)" stroke="white" stroke-width="3" stroke-linecap="round"/>
<line x1="1.5" y1="-1.5" x2="57.0605" y2="-1.5" transform="matrix(0.63251 -0.774552 0.782982 0.622044 118.375 65.0293)" stroke="white" stroke-width="3" stroke-linecap="round"/>
<path d="M111.415 146.067C110.262 142.707 110.018 142.326 108.875 142.101C108.222 141.973 107.108 141.965 106.4 142.085C103.772 142.528 102.59 143.987 100.219 149.715C97.339 156.673 96.0896 158.625 93.3595 160.429C92.1755 161.212 90.1041 163.332 88.7563 165.14C82.6416 173.343 81.7249 174.657 80.6763 176.721C80.0629 177.928 77.5461 181.323 75.0838 184.265C69.2029 191.289 69.1951 191.301 69.0339 193.306C68.8774 195.251 69.123 195.418 72.8322 195.904C74.9751 196.185 76.1602 195.926 81.2073 194.077C87.9745 191.598 88.9973 191.404 91.472 192.126C92.6998 192.484 94.1907 192.491 96.1045 192.148C97.6562 191.87 99.159 191.79 99.4438 191.97C100.431 192.593 109.121 191.985 109.876 191.24C110.696 190.431 110.627 190.412 107.249 190.528C104.007 190.639 102.279 189.218 102.279 186.441C102.279 184.74 102.653 184.229 106.169 181.124C113.036 175.06 114.265 170.532 111.891 160.042C110.12 152.216 109.735 149.087 110.485 148.63C110.812 148.43 111.534 148.626 112 149C112.074 149.054 112.326 148.967 112.188 148.63C112.065 148.33 111.934 147.857 111.795 147.353C111.675 146.916 111.549 146.457 111.415 146.067Z" fill="white"/>
<path d="M111.415 146.067C110.262 142.707 110.018 142.326 108.875 142.101C108.222 141.973 107.108 141.965 106.4 142.085C103.772 142.528 102.59 143.987 100.219 149.715C97.339 156.673 96.0896 158.625 93.3595 160.429C92.1755 161.212 90.1041 163.332 88.7563 165.14C82.6416 173.343 81.7249 174.657 80.6763 176.721C80.0629 177.928 77.5461 181.323 75.0838 184.265C69.2029 191.289 69.1951 191.301 69.0339 193.306C68.8774 195.251 69.123 195.418 72.8322 195.904C74.9751 196.185 76.1602 195.926 81.2073 194.077C87.9745 191.598 88.9973 191.404 91.472 192.126C92.6998 192.484 94.1907 192.491 96.1045 192.148C97.6562 191.87 99.159 191.79 99.4438 191.97C100.431 192.593 109.121 191.985 109.876 191.24C110.696 190.431 110.627 190.412 107.249 190.528C104.007 190.639 102.279 189.218 102.279 186.441C102.279 184.74 102.653 184.229 106.169 181.124C113.036 175.06 114.265 170.532 111.891 160.042C110.12 152.216 109.735 149.087 110.485 148.63C110.812 148.43 111.534 148.626 112 149C112.074 149.054 112.326 148.967 112.188 148.63C112.065 148.33 111.934 147.857 111.795 147.353C111.675 146.916 111.549 146.457 111.415 146.067Z" stroke="white"/>
<path d="M229 190.443V256H208.69V209.428H25.6045L25.3101 256H5L5.29435 190.443H31.1971V89.2885C31.1971 60.4156 38.8502 38.3654 54.1564 23.1379C69.6588 7.71263 90.6557 0 117.147 0C143.639 0 164.537 7.71263 179.844 23.1379C195.346 38.3654 203.097 60.4156 203.097 89.2885V190.443H229ZM181.315 190.443V87.212C181.315 64.8652 175.625 48.0556 164.243 36.7833C153.058 25.3132 137.359 19.5782 117.147 19.5782C96.7389 19.5782 80.8441 25.3132 69.4626 36.7833C58.2773 48.0556 52.6846 64.8652 52.6846 87.212V190.443H181.315Z" fill="white"/>
<path d="M238 254.716V255.716H239H250.641H251.641V254.716V234.83H265.022C265.62 234.83 266.441 234.8 267.474 234.743C268.523 234.684 269.466 234.597 270.299 234.477L270.299 234.478L270.312 234.476C274.094 233.885 277.261 232.619 279.765 230.635C282.271 228.672 284.118 226.204 285.296 223.245C286.49 220.287 287.079 217.02 287.079 213.457C287.079 209.897 286.506 206.645 285.34 203.716C284.163 200.729 282.316 198.245 279.808 196.28C277.306 194.297 274.126 193.032 270.322 192.441C269.471 192.289 268.515 192.201 267.461 192.171C266.461 192.114 265.646 192.085 265.022 192.085H239H238V193.085V254.716ZM268.183 221.566L268.183 221.566L268.171 221.569C267.644 221.72 267.054 221.824 266.398 221.876C265.706 221.932 265.077 221.959 264.509 221.959H251.641V204.956H264.509C265.077 204.956 265.706 204.983 266.398 205.038L266.477 204.041L266.398 205.038C267.054 205.091 267.644 205.195 268.171 205.345L268.171 205.345L268.183 205.349C269.598 205.735 270.617 206.368 271.316 207.207L271.316 207.207L271.325 207.217C272.081 208.1 272.593 209.088 272.869 210.19L272.872 210.203L272.876 210.217C273.197 211.368 273.352 212.447 273.352 213.457C273.352 214.468 273.197 215.563 272.874 216.747L272.872 216.754L272.87 216.762C272.596 217.835 272.084 218.827 271.32 219.745C270.623 220.557 269.602 221.179 268.183 221.566ZM308.646 252.833L308.648 252.835C313.309 255.625 318.815 257 325.126 257C331.436 257 336.929 255.626 341.562 252.834C346.21 250.051 349.778 246.154 352.257 241.167C354.763 236.183 356 230.418 356 223.9C356 217.383 354.763 211.618 352.257 206.634C349.778 201.647 346.21 197.75 341.562 194.967C336.929 192.175 331.436 190.801 325.126 190.801C318.815 190.801 313.309 192.175 308.648 194.966L308.646 194.967C304.026 197.751 300.46 201.647 297.954 206.631L297.952 206.635C295.474 211.619 294.252 217.383 294.252 223.9C294.252 230.418 295.474 236.182 297.952 241.166L297.954 241.17C300.46 246.154 304.026 250.05 308.646 252.833ZM339.78 234.734L339.777 234.741C338.56 237.77 336.74 240.07 334.327 241.688C331.938 243.289 328.898 244.098 325.141 244.043C321.376 243.989 318.324 243.125 315.924 241.516C313.506 239.895 311.672 237.619 310.428 234.646C309.205 231.655 308.578 228.082 308.578 223.9C308.578 219.72 309.205 216.115 310.431 213.063C311.676 210.033 313.511 207.731 315.924 206.113C318.314 204.511 321.354 203.702 325.111 203.757C328.875 203.812 331.927 204.676 334.327 206.284C336.745 207.905 338.564 210.18 339.779 213.151L339.782 213.158C341.032 216.148 341.674 219.72 341.674 223.9C341.674 228.08 341.033 231.684 339.78 234.734Z" fill="white" stroke="white" stroke-width="2"/>
<rect x="363" y="218.9" width="20" height="10" fill="white"/>
<defs>
<linearGradient id="paint0_linear_1691_5810" x1="117.399" y1="13.0803" x2="117.399" y2="191.064" gradientUnits="userSpaceOnUse">
<stop offset="0.46875" stop-color="#8CE8FD"/>
<stop offset="1" stop-color="#2687E1"/>
</linearGradient>
</defs>
</svg>
