<svg width="767" height="550" viewBox="0 0 767 550" fill="none" xmlns="http://www.w3.org/2000/svg">
<path d="M281.679 533.089C278.425 533.089 275.545 532.369 273.039 530.929C270.585 529.436 268.665 527.436 267.279 524.929V549.329H256.559V490.369H265.919V497.569C267.519 495.116 269.545 493.196 271.999 491.809C274.452 490.369 277.252 489.649 280.399 489.649C283.225 489.649 285.812 490.209 288.159 491.329C290.559 492.449 292.639 494.022 294.399 496.049C296.159 498.022 297.519 500.316 298.479 502.929C299.492 505.489 299.999 508.262 299.999 511.249C299.999 515.302 299.199 518.982 297.599 522.289C296.052 525.596 293.892 528.236 291.119 530.209C288.399 532.129 285.252 533.089 281.679 533.089ZM278.079 523.969C279.732 523.969 281.225 523.622 282.559 522.929C283.892 522.236 285.039 521.302 285.999 520.129C287.012 518.902 287.759 517.542 288.239 516.049C288.772 514.502 289.039 512.902 289.039 511.249C289.039 509.489 288.745 507.862 288.159 506.369C287.625 504.876 286.825 503.569 285.759 502.449C284.692 501.276 283.439 500.369 281.999 499.729C280.612 499.089 279.092 498.769 277.439 498.769C276.425 498.769 275.385 498.956 274.319 499.329C273.305 499.649 272.319 500.129 271.359 500.769C270.399 501.409 269.545 502.156 268.799 503.009C268.105 503.862 267.599 504.796 267.279 505.809V515.649C267.919 517.196 268.772 518.609 269.839 519.889C270.959 521.169 272.239 522.182 273.679 522.929C275.119 523.622 276.585 523.969 278.079 523.969ZM326.622 533.089C323.209 533.089 320.142 532.529 317.422 531.409C314.702 530.236 312.382 528.636 310.462 526.609C308.595 524.582 307.155 522.262 306.142 519.649C305.129 517.036 304.622 514.289 304.622 511.409C304.622 508.476 305.129 505.702 306.142 503.089C307.155 500.476 308.595 498.156 310.462 496.129C312.382 494.102 314.702 492.529 317.422 491.409C320.142 490.236 323.209 489.649 326.622 489.649C330.035 489.649 333.075 490.236 335.742 491.409C338.462 492.529 340.782 494.102 342.702 496.129C344.622 498.156 346.062 500.476 347.022 503.089C348.035 505.702 348.542 508.476 348.542 511.409C348.542 514.289 348.035 517.036 347.022 519.649C346.062 522.262 344.622 524.582 342.702 526.609C340.835 528.636 338.542 530.236 335.822 531.409C333.102 532.529 330.035 533.089 326.622 533.089ZM315.662 511.409C315.662 513.862 316.142 516.049 317.102 517.969C318.062 519.836 319.369 521.302 321.022 522.369C322.675 523.436 324.542 523.969 326.622 523.969C328.649 523.969 330.489 523.436 332.142 522.369C333.795 521.249 335.102 519.756 336.062 517.889C337.075 515.969 337.582 513.782 337.582 511.329C337.582 508.929 337.075 506.769 336.062 504.849C335.102 502.929 333.795 501.436 332.142 500.369C330.489 499.302 328.649 498.769 326.622 498.769C324.542 498.769 322.675 499.329 321.022 500.449C319.369 501.516 318.062 503.009 317.102 504.929C316.142 506.796 315.662 508.956 315.662 511.409ZM355.777 532.289V490.369H383.537V499.729H366.497V532.289H355.777ZM409.044 533.089C405.63 533.089 402.564 532.529 399.844 531.409C397.124 530.236 394.804 528.636 392.884 526.609C391.017 524.582 389.577 522.262 388.564 519.649C387.55 517.036 387.044 514.289 387.044 511.409C387.044 508.476 387.55 505.702 388.564 503.089C389.577 500.476 391.017 498.156 392.884 496.129C394.804 494.102 397.124 492.529 399.844 491.409C402.564 490.236 405.63 489.649 409.044 489.649C412.457 489.649 415.497 490.236 418.164 491.409C420.884 492.529 423.204 494.102 425.124 496.129C427.044 498.156 428.484 500.476 429.444 503.089C430.457 505.702 430.964 508.476 430.964 511.409C430.964 514.289 430.457 517.036 429.444 519.649C428.484 522.262 427.044 524.582 425.124 526.609C423.257 528.636 420.964 530.236 418.244 531.409C415.524 532.529 412.457 533.089 409.044 533.089ZM398.084 511.409C398.084 513.862 398.564 516.049 399.524 517.969C400.484 519.836 401.79 521.302 403.444 522.369C405.097 523.436 406.964 523.969 409.044 523.969C411.07 523.969 412.91 523.436 414.564 522.369C416.217 521.249 417.524 519.756 418.484 517.889C419.497 515.969 420.004 513.782 420.004 511.329C420.004 508.929 419.497 506.769 418.484 504.849C417.524 502.929 416.217 501.436 414.564 500.369C412.91 499.302 411.07 498.769 409.044 498.769C406.964 498.769 405.097 499.329 403.444 500.449C401.79 501.516 400.484 503.009 399.524 504.929C398.564 506.796 398.084 508.956 398.084 511.409ZM459.079 533.089C451.879 533.089 446.413 530.982 442.679 526.769C438.999 522.502 437.159 516.289 437.159 508.129C437.159 503.009 437.613 498.689 438.519 495.169C439.426 491.649 440.759 488.742 442.519 486.449C444.279 484.156 446.493 482.289 449.159 480.849C451.879 479.409 454.999 478.262 458.519 477.409L476.519 472.849L476.679 481.569L458.919 486.209C456.359 486.956 454.119 487.996 452.199 489.329C450.279 490.609 448.733 492.289 447.559 494.369C446.439 496.396 445.719 498.956 445.399 502.049C446.999 499.436 449.186 497.382 451.959 495.889C454.733 494.342 458.093 493.569 462.039 493.569C465.773 493.569 469.053 494.369 471.879 495.969C474.706 497.569 476.893 499.782 478.439 502.609C480.039 505.436 480.839 508.716 480.839 512.449C480.839 516.449 479.986 520.022 478.279 523.169C476.626 526.262 474.173 528.689 470.919 530.449C467.719 532.209 463.773 533.089 459.079 533.089ZM459.079 523.969C462.386 523.969 464.999 522.982 466.919 521.009C468.893 518.982 469.879 516.316 469.879 513.009C469.879 509.809 468.919 507.196 466.999 505.169C465.079 503.142 462.439 502.129 459.079 502.129C456.999 502.129 455.133 502.556 453.479 503.409C451.879 504.262 450.599 505.516 449.639 507.169C448.679 508.769 448.199 510.716 448.199 513.009C448.199 515.142 448.626 517.036 449.479 518.689C450.333 520.342 451.559 521.649 453.159 522.609C454.813 523.516 456.786 523.969 459.079 523.969ZM487.965 532.289V490.449H498.685V517.969L517.485 490.369H527.245V532.289H516.525V505.409L497.965 532.289H487.965ZM560.387 532.289V517.249C558.787 517.942 557.161 518.449 555.507 518.769C553.907 519.089 552.067 519.249 549.987 519.249C545.561 519.249 542.094 518.076 539.587 515.729C537.081 513.329 535.827 509.836 535.827 505.249V490.369H546.547V503.809C546.547 506.316 547.081 508.156 548.147 509.329C549.267 510.502 550.974 511.089 553.267 511.089C554.547 511.089 555.827 510.956 557.107 510.689C558.387 510.422 559.481 510.049 560.387 509.569V490.369H571.187V532.289H560.387ZM604.294 532.289V517.249C602.694 517.942 601.067 518.449 599.414 518.769C597.814 519.089 595.974 519.249 593.894 519.249C589.467 519.249 586 518.076 583.494 515.729C580.987 513.329 579.734 509.836 579.734 505.249V490.369H590.454V503.809C590.454 506.316 590.987 508.156 592.054 509.329C593.174 510.502 594.88 511.089 597.174 511.089C598.454 511.089 599.734 510.956 601.014 510.689C602.294 510.422 603.387 510.049 604.294 509.569V490.369H615.094V532.289H604.294ZM624.84 532.289V490.449H635.56V517.969L654.36 490.369H664.12V532.289H653.4V505.409L634.84 532.289H624.84ZM673.902 532.289V490.369H684.622V506.369H701.582V490.369H712.302V532.289H701.582V515.329H684.622V532.289H673.902ZM722.106 532.289V490.449H732.826V517.969L751.626 490.369H761.386V532.289H750.666V505.409L732.106 532.289H722.106Z" fill="white"/>
<path d="M47.4237 379.944C47.4237 347.535 52.2243 325.67 63.6039 311.9C74.9606 298.158 92.9718 292.364 119.715 292.364C146.458 292.364 164.127 298.158 175.147 311.894C186.192 325.663 190.658 347.529 190.658 379.944V477.954H47.4233L47.4233 477.755L47.4234 475.742L47.4234 468.277L47.4235 443.107L47.4237 379.944Z" fill="url(#paint0_linear_174_1308)" stroke="white"/>
<line x1="51.8911" y1="347.824" x2="51.8911" y2="476.946" stroke="white" stroke-width="3" stroke-linecap="round"/>
<line x1="1.5" y1="-1.5" x2="106.657" y2="-1.5" transform="matrix(-0.00458381 0.99999 -0.999989 -0.00464065 66.9146 356.778)" stroke="white" stroke-width="3" stroke-linecap="round"/>
<line x1="1.5" y1="-1.5" x2="88.9635" y2="-1.5" transform="matrix(0.00602769 0.999982 -0.999981 0.00610243 78.3379 363.962)" stroke="white" stroke-width="3" stroke-linecap="round"/>
<line x1="1.5" y1="-1.5" x2="34.5834" y2="-1.5" transform="matrix(0.84429 0.535887 -0.531303 0.847182 50.731 348.934)" stroke="white" stroke-width="3" stroke-linecap="round"/>
<line x1="1.5" y1="-1.5" x2="30.9637" y2="-1.5" transform="matrix(0.992837 -0.119479 0.118073 0.993005 50.3911 412.385)" stroke="white" stroke-width="3" stroke-linecap="round"/>
<line x1="1.5" y1="-1.5" x2="38.7186" y2="-1.5" transform="matrix(0.748363 -0.66329 0.658703 0.752403 53.9526 479.726)" stroke="white" stroke-width="3" stroke-linecap="round"/>
<line x1="1.5" y1="-1.5" x2="130.622" y2="-1.5" transform="matrix(0 1 1 0 188.3 346.324)" stroke="white" stroke-width="3" stroke-linecap="round"/>
<line x1="1.5" y1="-1.5" x2="106.657" y2="-1.5" transform="matrix(0.00458381 0.99999 0.999989 -0.00464065 171.777 356.778)" stroke="white" stroke-width="3" stroke-linecap="round"/>
<line x1="1.5" y1="-1.5" x2="88.9635" y2="-1.5" transform="matrix(-0.00602769 0.999982 0.999981 0.00610243 160.354 363.962)" stroke="white" stroke-width="3" stroke-linecap="round"/>
<line x1="1.5" y1="-1.5" x2="34.5834" y2="-1.5" transform="matrix(-0.84429 0.535887 0.531303 0.847182 187.961 348.934)" stroke="white" stroke-width="3" stroke-linecap="round"/>
<line x1="1.5" y1="-1.5" x2="30.9637" y2="-1.5" transform="matrix(-0.992837 -0.119479 -0.118073 0.993005 188.3 412.385)" stroke="white" stroke-width="3" stroke-linecap="round"/>
<line x1="1.5" y1="-1.5" x2="38.7186" y2="-1.5" transform="matrix(-0.748363 -0.66329 -0.658703 0.752403 184.739 479.726)" stroke="white" stroke-width="3" stroke-linecap="round"/>
<line x1="48.9648" y1="346.965" x2="189.816" y2="346.965" stroke="white" stroke-width="4"/>
<line x1="1" y1="-1" x2="60.4352" y2="-1" transform="matrix(0.633218 0.773974 -0.783474 0.621425 79.8179 298.775)" stroke="white" stroke-width="2" stroke-linecap="round"/>
<line x1="1" y1="-1" x2="60.4351" y2="-1" transform="matrix(0.633172 -0.774011 0.78351 0.621379 120.063 346.325)" stroke="white" stroke-width="2" stroke-linecap="round"/>
<path d="M128.535 414.542C126.877 409.842 126.525 409.309 124.882 408.995C123.942 408.815 122.339 408.805 121.321 408.972C117.542 409.591 115.842 411.632 112.432 419.643C108.289 429.375 106.492 432.105 102.565 434.628C100.862 435.723 97.8826 438.687 95.9441 441.216C87.1491 452.689 85.8305 454.527 84.3223 457.414C83.4401 459.102 79.82 463.85 76.2785 467.964C67.8198 477.789 67.8087 477.805 67.5768 480.609C67.3516 483.33 67.705 483.564 73.0399 484.244C76.1222 484.636 77.8267 484.274 85.0861 481.688C94.8196 478.221 96.2907 477.95 99.8501 478.959C101.616 479.461 103.761 479.471 106.513 478.991C108.745 478.601 110.907 478.489 111.316 478.741C112.736 479.612 125.235 478.763 126.321 477.72C127.501 476.589 127.402 476.562 122.542 476.724C117.879 476.879 115.395 474.893 115.395 471.008C115.395 468.629 115.933 467.915 120.99 463.572C130.866 455.091 132.634 448.758 129.22 434.087C126.672 423.141 126.118 418.765 127.197 418.125C127.668 417.846 128.6 418.045 129.27 418.567C130.342 419.403 130.416 419.347 129.887 418.095C129.557 417.314 128.948 415.714 128.535 414.542Z" fill="white"/>
<path d="M128.535 414.542C126.877 409.842 126.525 409.309 124.882 408.995C123.942 408.815 122.339 408.805 121.321 408.972C117.542 409.591 115.842 411.632 112.432 419.643C108.289 429.375 106.492 432.105 102.565 434.628C100.862 435.723 97.8826 438.687 95.9441 441.216C87.1491 452.689 85.8305 454.527 84.3223 457.414C83.4401 459.102 79.82 463.85 76.2785 467.964C67.8198 477.789 67.8087 477.805 67.5768 480.609C67.3516 483.33 67.705 483.564 73.0399 484.244C76.1222 484.636 77.8267 484.274 85.0861 481.688C94.8196 478.221 96.2907 477.95 99.8501 478.959C101.616 479.461 103.761 479.471 106.513 478.991C108.745 478.601 110.907 478.489 111.316 478.741C112.736 479.612 125.235 478.763 126.321 477.72C127.501 476.589 127.402 476.562 122.542 476.724C117.879 476.879 115.395 474.893 115.395 471.008C115.395 468.629 115.933 467.915 120.99 463.572C130.866 455.091 132.634 448.758 129.22 434.087C126.672 423.141 126.118 418.765 127.197 418.125C127.668 417.846 128.6 418.045 129.27 418.567C130.342 419.403 130.416 419.347 129.887 418.095C129.557 417.314 128.948 415.714 128.535 414.542Z" stroke="white"/>
<path d="M236.742 477.803V477.303H236.242H209.539V371.757C209.539 341.401 201.374 318.138 184.971 302.053C168.783 285.769 146.697 277.651 118.775 277.651C90.8523 277.651 68.6643 285.77 52.271 302.053C36.0737 318.139 28.0118 341.401 28.0118 371.757V477.303H1.30912H0.811365L0.809126 477.8L0.500005 546.528L0.497746 547.03H1H22.3294H22.8262L22.8294 546.533L23.1354 498.205H214.412V546.53V547.03H214.912H236.242H236.742V546.53V477.803ZM167.877 317.062L167.883 317.068C179.709 328.76 185.664 346.233 185.664 369.58V477.303H51.5777V369.58C51.5777 346.23 57.4311 328.757 69.0523 317.065C80.8879 305.158 97.439 299.176 118.775 299.176C139.904 299.176 156.248 305.158 167.877 317.062Z" fill="white" stroke="white"/>
<path d="M254.24 364.458V347.754H268.096V364.458H265.28V350.25H257.056V364.458H254.24ZM280.039 364.778C278.78 364.778 277.628 364.554 276.583 364.106C275.559 363.636 274.663 362.996 273.895 362.186C273.148 361.375 272.562 360.447 272.135 359.402C271.73 358.356 271.527 357.247 271.527 356.074C271.527 354.495 271.879 353.055 272.583 351.754C273.287 350.452 274.279 349.418 275.559 348.65C276.839 347.86 278.322 347.466 280.007 347.466C281.65 347.466 283.079 347.839 284.295 348.586C285.532 349.311 286.45 350.292 287.047 351.53L284.295 352.394C283.868 351.604 283.271 350.996 282.503 350.57C281.735 350.122 280.882 349.898 279.943 349.898C278.919 349.898 277.98 350.164 277.127 350.698C276.295 351.231 275.634 351.967 275.143 352.906C274.652 353.823 274.407 354.879 274.407 356.074C274.407 357.247 274.652 358.314 275.143 359.274C275.655 360.212 276.327 360.959 277.159 361.514C278.012 362.068 278.951 362.346 279.975 362.346C280.636 362.346 281.266 362.228 281.863 361.994C282.482 361.759 283.015 361.45 283.463 361.066C283.932 360.66 284.252 360.223 284.423 359.754L287.175 360.586C286.834 361.396 286.311 362.122 285.607 362.762C284.924 363.38 284.103 363.871 283.143 364.234C282.204 364.596 281.17 364.778 280.039 364.778ZM290.334 364.458V347.786H293.15V360.682L302.494 347.754H305.054V364.458H302.238V351.818L293.022 364.458H290.334ZM310.801 347.754L315.217 353.898L315.473 354.41L315.761 353.898L320.145 347.754H323.281L317.105 356.138L323.313 364.458H320.177L315.761 358.346L315.473 357.866L315.217 358.346L310.801 364.458H307.665L313.873 356.138L307.697 347.754H310.801ZM333.256 364.778C331.997 364.778 330.856 364.554 329.832 364.106C328.808 363.636 327.922 363.007 327.176 362.218C326.429 361.407 325.853 360.479 325.448 359.434C325.042 358.388 324.84 357.29 324.84 356.138C324.84 354.964 325.042 353.855 325.448 352.81C325.853 351.764 326.429 350.847 327.176 350.058C327.922 349.247 328.808 348.618 329.832 348.17C330.877 347.7 332.018 347.466 333.256 347.466C334.514 347.466 335.656 347.7 336.68 348.17C337.704 348.618 338.589 349.247 339.336 350.058C340.104 350.847 340.69 351.764 341.096 352.81C341.501 353.855 341.704 354.964 341.704 356.138C341.704 357.29 341.501 358.388 341.096 359.434C340.69 360.479 340.114 361.407 339.368 362.218C338.621 363.007 337.725 363.636 336.68 364.106C335.656 364.554 334.514 364.778 333.256 364.778ZM327.72 356.17C327.72 357.322 327.965 358.367 328.456 359.306C328.968 360.244 329.64 360.991 330.472 361.546C331.304 362.079 332.232 362.346 333.256 362.346C334.28 362.346 335.208 362.068 336.04 361.514C336.893 360.959 337.565 360.212 338.056 359.274C338.568 358.314 338.824 357.258 338.824 356.106C338.824 354.954 338.568 353.908 338.056 352.97C337.565 352.031 336.893 351.284 336.04 350.73C335.208 350.175 334.28 349.898 333.256 349.898C332.232 349.898 331.304 350.186 330.472 350.762C329.64 351.316 328.968 352.063 328.456 353.002C327.965 353.94 327.72 354.996 327.72 356.17ZM343.644 364.586V362.058C344.198 362.058 344.689 361.919 345.116 361.642C345.564 361.343 345.958 360.852 346.3 360.17C346.641 359.466 346.908 358.506 347.1 357.29C347.313 356.052 347.452 354.484 347.516 352.586L347.708 347.754H359.068V364.458H356.252V350.25H350.204L350.14 352.842C350.054 355.124 349.862 357.023 349.564 358.538C349.265 360.052 348.849 361.247 348.316 362.122C347.782 362.996 347.121 363.626 346.332 364.01C345.564 364.394 344.668 364.586 343.644 364.586ZM370.912 364.778C369.653 364.778 368.512 364.554 367.488 364.106C366.464 363.636 365.578 363.007 364.832 362.218C364.085 361.407 363.509 360.479 363.104 359.434C362.698 358.388 362.496 357.29 362.496 356.138C362.496 354.964 362.698 353.855 363.104 352.81C363.509 351.764 364.085 350.847 364.832 350.058C365.578 349.247 366.464 348.618 367.488 348.17C368.533 347.7 369.674 347.466 370.912 347.466C372.17 347.466 373.312 347.7 374.336 348.17C375.36 348.618 376.245 349.247 376.992 350.058C377.76 350.847 378.346 351.764 378.752 352.81C379.157 353.855 379.36 354.964 379.36 356.138C379.36 357.29 379.157 358.388 378.752 359.434C378.346 360.479 377.77 361.407 377.024 362.218C376.277 363.007 375.381 363.636 374.336 364.106C373.312 364.554 372.17 364.778 370.912 364.778ZM365.376 356.17C365.376 357.322 365.621 358.367 366.112 359.306C366.624 360.244 367.296 360.991 368.128 361.546C368.96 362.079 369.888 362.346 370.912 362.346C371.936 362.346 372.864 362.068 373.696 361.514C374.549 360.959 375.221 360.212 375.712 359.274C376.224 358.314 376.48 357.258 376.48 356.106C376.48 354.954 376.224 353.908 375.712 352.97C375.221 352.031 374.549 351.284 373.696 350.73C372.864 350.175 371.936 349.898 370.912 349.898C369.888 349.898 368.96 350.186 368.128 350.762C367.296 351.316 366.624 352.063 366.112 353.002C365.621 353.94 365.376 354.996 365.376 356.17ZM382.74 364.458V347.754H393.044V350.25H385.556V364.458H382.74ZM395.896 364.458V347.786H398.712V360.682L408.056 347.754H410.616V364.458H407.8V351.818L398.584 364.458H395.896ZM254.24 404.458V387.754H268.096V404.458H265.28V390.25H257.056V404.458H254.24ZM280.039 404.778C278.78 404.778 277.628 404.554 276.583 404.106C275.559 403.636 274.663 402.996 273.895 402.186C273.148 401.375 272.562 400.447 272.135 399.402C271.73 398.356 271.527 397.247 271.527 396.074C271.527 394.495 271.879 393.055 272.583 391.754C273.287 390.452 274.279 389.418 275.559 388.65C276.839 387.86 278.322 387.466 280.007 387.466C281.65 387.466 283.079 387.839 284.295 388.586C285.532 389.311 286.45 390.292 287.047 391.53L284.295 392.394C283.868 391.604 283.271 390.996 282.503 390.57C281.735 390.122 280.882 389.898 279.943 389.898C278.919 389.898 277.98 390.164 277.127 390.698C276.295 391.231 275.634 391.967 275.143 392.906C274.652 393.823 274.407 394.879 274.407 396.074C274.407 397.247 274.652 398.314 275.143 399.274C275.655 400.212 276.327 400.959 277.159 401.514C278.012 402.068 278.951 402.346 279.975 402.346C280.636 402.346 281.266 402.228 281.863 401.994C282.482 401.759 283.015 401.45 283.463 401.066C283.932 400.66 284.252 400.223 284.423 399.754L287.175 400.586C286.834 401.396 286.311 402.122 285.607 402.762C284.924 403.38 284.103 403.871 283.143 404.234C282.204 404.596 281.17 404.778 280.039 404.778ZM290.334 404.458V387.786H293.15V400.682L302.494 387.754H305.054V404.458H302.238V391.818L293.022 404.458H290.334ZM310.801 387.754L315.217 393.898L315.473 394.41L315.761 393.898L320.145 387.754H323.281L317.105 396.138L323.313 404.458H320.177L315.761 398.346L315.473 397.866L315.217 398.346L310.801 404.458H307.665L313.873 396.138L307.697 387.754H310.801ZM333.256 404.778C331.997 404.778 330.856 404.554 329.832 404.106C328.808 403.636 327.922 403.007 327.176 402.218C326.429 401.407 325.853 400.479 325.448 399.434C325.042 398.388 324.84 397.29 324.84 396.138C324.84 394.964 325.042 393.855 325.448 392.81C325.853 391.764 326.429 390.847 327.176 390.058C327.922 389.247 328.808 388.618 329.832 388.17C330.877 387.7 332.018 387.466 333.256 387.466C334.514 387.466 335.656 387.7 336.68 388.17C337.704 388.618 338.589 389.247 339.336 390.058C340.104 390.847 340.69 391.764 341.096 392.81C341.501 393.855 341.704 394.964 341.704 396.138C341.704 397.29 341.501 398.388 341.096 399.434C340.69 400.479 340.114 401.407 339.368 402.218C338.621 403.007 337.725 403.636 336.68 404.106C335.656 404.554 334.514 404.778 333.256 404.778ZM327.72 396.17C327.72 397.322 327.965 398.367 328.456 399.306C328.968 400.244 329.64 400.991 330.472 401.546C331.304 402.079 332.232 402.346 333.256 402.346C334.28 402.346 335.208 402.068 336.04 401.514C336.893 400.959 337.565 400.212 338.056 399.274C338.568 398.314 338.824 397.258 338.824 396.106C338.824 394.954 338.568 393.908 338.056 392.97C337.565 392.031 336.893 391.284 336.04 390.73C335.208 390.175 334.28 389.898 333.256 389.898C332.232 389.898 331.304 390.186 330.472 390.762C329.64 391.316 328.968 392.063 328.456 393.002C327.965 393.94 327.72 394.996 327.72 396.17ZM349.18 404.458V390.25H343.42V387.754H357.756V390.25H351.996V404.458H349.18ZM367.977 404.778C366.718 404.778 365.566 404.554 364.521 404.106C363.497 403.636 362.601 403.007 361.833 402.218C361.086 401.407 360.499 400.479 360.073 399.434C359.667 398.388 359.465 397.279 359.465 396.106C359.465 394.527 359.827 393.087 360.553 391.786C361.278 390.484 362.281 389.439 363.561 388.65C364.862 387.86 366.345 387.466 368.009 387.466C369.694 387.466 371.155 387.871 372.393 388.682C373.651 389.471 374.622 390.516 375.305 391.818C376.009 393.098 376.361 394.484 376.361 395.978C376.361 396.191 376.35 396.404 376.329 396.618C376.329 396.81 376.318 396.959 376.297 397.066H362.441C362.526 398.154 362.825 399.124 363.337 399.978C363.87 400.81 364.553 401.471 365.385 401.962C366.217 402.431 367.113 402.666 368.073 402.666C369.097 402.666 370.057 402.41 370.953 401.898C371.87 401.386 372.499 400.714 372.841 399.882L375.273 400.554C374.91 401.364 374.366 402.09 373.641 402.73C372.937 403.37 372.094 403.871 371.113 404.234C370.153 404.596 369.107 404.778 367.977 404.778ZM362.345 395.114H373.737C373.651 394.026 373.342 393.066 372.809 392.234C372.275 391.402 371.593 390.751 370.761 390.282C369.929 389.812 369.011 389.578 368.009 389.578C367.027 389.578 366.121 389.812 365.289 390.282C364.457 390.751 363.774 391.402 363.241 392.234C362.729 393.066 362.43 394.026 362.345 395.114ZM388.483 404.778C387.117 404.778 385.901 404.436 384.835 403.754C383.768 403.071 382.925 402.207 382.307 401.162V411.274H379.491V387.754H381.987V390.89C382.648 389.866 383.512 389.044 384.579 388.426C385.645 387.786 386.808 387.466 388.067 387.466C389.219 387.466 390.275 387.7 391.235 388.17C392.195 388.639 393.027 389.279 393.731 390.09C394.435 390.9 394.979 391.828 395.363 392.874C395.768 393.898 395.971 394.975 395.971 396.106C395.971 397.684 395.651 399.135 395.011 400.458C394.392 401.78 393.517 402.836 392.387 403.626C391.256 404.394 389.955 404.778 388.483 404.778ZM387.619 402.346C388.451 402.346 389.197 402.175 389.859 401.834C390.541 401.471 391.117 401.002 391.587 400.426C392.077 399.828 392.451 399.156 392.707 398.41C392.963 397.663 393.091 396.895 393.091 396.106C393.091 395.274 392.941 394.484 392.643 393.738C392.365 392.991 391.96 392.33 391.427 391.754C390.915 391.178 390.307 390.73 389.603 390.41C388.92 390.068 388.173 389.898 387.363 389.898C386.851 389.898 386.317 389.994 385.763 390.186C385.229 390.378 384.717 390.655 384.227 391.018C383.736 391.359 383.32 391.754 382.979 392.202C382.637 392.65 382.413 393.13 382.307 393.642V398.41C382.627 399.135 383.053 399.796 383.587 400.394C384.12 400.991 384.739 401.471 385.443 401.834C386.147 402.175 386.872 402.346 387.619 402.346ZM398.116 399.626C398.116 398.559 398.415 397.642 399.012 396.874C399.631 396.084 400.474 395.476 401.54 395.05C402.607 394.623 403.844 394.41 405.252 394.41C405.999 394.41 406.788 394.474 407.62 394.602C408.452 394.708 409.188 394.879 409.828 395.114V393.898C409.828 392.618 409.444 391.615 408.676 390.89C407.908 390.143 406.82 389.77 405.412 389.77C404.495 389.77 403.61 389.94 402.756 390.282C401.924 390.602 401.039 391.071 400.1 391.69L399.076 389.706C400.164 388.959 401.252 388.404 402.34 388.042C403.428 387.658 404.559 387.466 405.732 387.466C407.866 387.466 409.551 388.063 410.788 389.258C412.026 390.431 412.644 392.074 412.644 394.186V401.258C412.644 401.599 412.708 401.855 412.836 402.026C412.986 402.175 413.22 402.26 413.54 402.282V404.458C413.263 404.5 413.018 404.532 412.804 404.554C412.612 404.575 412.452 404.586 412.324 404.586C411.663 404.586 411.162 404.404 410.82 404.042C410.5 403.679 410.319 403.295 410.276 402.89L410.212 401.834C409.487 402.772 408.538 403.498 407.364 404.01C406.191 404.522 405.028 404.778 403.876 404.778C402.767 404.778 401.775 404.554 400.9 404.106C400.026 403.636 399.343 403.018 398.852 402.25C398.362 401.46 398.116 400.586 398.116 399.626ZM408.996 400.81C409.252 400.511 409.455 400.212 409.604 399.914C409.754 399.594 409.828 399.327 409.828 399.114V397.034C409.167 396.778 408.474 396.586 407.748 396.458C407.023 396.308 406.308 396.234 405.604 396.234C404.175 396.234 403.012 396.522 402.116 397.098C401.242 397.652 400.804 398.42 400.804 399.402C400.804 399.935 400.943 400.458 401.22 400.97C401.519 401.46 401.946 401.866 402.5 402.186C403.076 402.506 403.78 402.666 404.612 402.666C405.487 402.666 406.319 402.495 407.108 402.154C407.898 401.791 408.527 401.343 408.996 400.81ZM417.115 404.458V387.754H430.971V404.458H428.155V390.25H419.931V404.458H417.115ZM442.914 404.778C441.655 404.778 440.503 404.554 439.458 404.106C438.434 403.636 437.538 403.007 436.77 402.218C436.023 401.407 435.437 400.479 435.01 399.434C434.605 398.388 434.402 397.279 434.402 396.106C434.402 394.527 434.765 393.087 435.49 391.786C436.215 390.484 437.218 389.439 438.498 388.65C439.799 387.86 441.282 387.466 442.946 387.466C444.631 387.466 446.093 387.871 447.33 388.682C448.589 389.471 449.559 390.516 450.242 391.818C450.946 393.098 451.298 394.484 451.298 395.978C451.298 396.191 451.287 396.404 451.266 396.618C451.266 396.81 451.255 396.959 451.234 397.066H437.378C437.463 398.154 437.762 399.124 438.274 399.978C438.807 400.81 439.49 401.471 440.322 401.962C441.154 402.431 442.05 402.666 443.01 402.666C444.034 402.666 444.994 402.41 445.89 401.898C446.807 401.386 447.437 400.714 447.778 399.882L450.21 400.554C449.847 401.364 449.303 402.09 448.578 402.73C447.874 403.37 447.031 403.871 446.05 404.234C445.09 404.596 444.045 404.778 442.914 404.778ZM437.282 395.114H448.674C448.589 394.026 448.279 393.066 447.746 392.234C447.213 391.402 446.53 390.751 445.698 390.282C444.866 389.812 443.949 389.578 442.946 389.578C441.965 389.578 441.058 389.812 440.226 390.282C439.394 390.751 438.711 391.402 438.178 392.234C437.666 393.066 437.367 394.026 437.282 395.114ZM454.396 404.458V387.754H463.036C464.039 387.754 464.871 387.956 465.532 388.362C466.194 388.746 466.684 389.247 467.004 389.866C467.346 390.484 467.516 391.146 467.516 391.85C467.516 392.746 467.303 393.556 466.876 394.282C466.45 394.986 465.831 395.519 465.02 395.882C465.98 396.159 466.759 396.66 467.356 397.386C467.954 398.09 468.252 398.964 468.252 400.01C468.252 400.948 468.028 401.748 467.58 402.41C467.132 403.071 466.503 403.583 465.692 403.946C464.882 404.287 463.943 404.458 462.876 404.458H454.396ZM457.084 402.474H462.812C463.324 402.474 463.783 402.346 464.188 402.09C464.615 401.834 464.946 401.492 465.18 401.066C465.415 400.639 465.532 400.191 465.532 399.722C465.532 399.21 465.415 398.751 465.18 398.346C464.967 397.919 464.658 397.588 464.252 397.354C463.868 397.098 463.42 396.97 462.908 396.97H457.084V402.474ZM457.084 395.114H462.3C462.812 395.114 463.26 394.986 463.644 394.73C464.028 394.452 464.327 394.1 464.54 393.674C464.754 393.247 464.86 392.799 464.86 392.33C464.86 391.626 464.626 391.018 464.156 390.506C463.708 389.994 463.122 389.738 462.396 389.738H457.084V395.114ZM475.899 404.458V390.25H470.139V387.754H484.475V390.25H478.715V404.458H475.899ZM487.271 404.458V387.786H490.087V400.682L499.431 387.754H501.991V404.458H499.175V391.818L489.959 404.458H487.271ZM254.24 444.458V427.754H268.096V444.458H265.28V430.25H257.056V444.458H254.24ZM280.039 444.778C278.78 444.778 277.628 444.554 276.583 444.106C275.559 443.636 274.663 442.996 273.895 442.186C273.148 441.375 272.562 440.447 272.135 439.402C271.73 438.356 271.527 437.247 271.527 436.074C271.527 434.495 271.879 433.055 272.583 431.754C273.287 430.452 274.279 429.418 275.559 428.65C276.839 427.86 278.322 427.466 280.007 427.466C281.65 427.466 283.079 427.839 284.295 428.586C285.532 429.311 286.45 430.292 287.047 431.53L284.295 432.394C283.868 431.604 283.271 430.996 282.503 430.57C281.735 430.122 280.882 429.898 279.943 429.898C278.919 429.898 277.98 430.164 277.127 430.698C276.295 431.231 275.634 431.967 275.143 432.906C274.652 433.823 274.407 434.879 274.407 436.074C274.407 437.247 274.652 438.314 275.143 439.274C275.655 440.212 276.327 440.959 277.159 441.514C278.012 442.068 278.951 442.346 279.975 442.346C280.636 442.346 281.266 442.228 281.863 441.994C282.482 441.759 283.015 441.45 283.463 441.066C283.932 440.66 284.252 440.223 284.423 439.754L287.175 440.586C286.834 441.396 286.311 442.122 285.607 442.762C284.924 443.38 284.103 443.871 283.143 444.234C282.204 444.596 281.17 444.778 280.039 444.778ZM290.334 444.458V427.786H293.15V440.682L302.494 427.754H305.054V444.458H302.238V431.818L293.022 444.458H290.334ZM310.801 427.754L315.217 433.898L315.473 434.41L315.761 433.898L320.145 427.754H323.281L317.105 436.138L323.313 444.458H320.177L315.761 438.346L315.473 437.866L315.217 438.346L310.801 444.458H307.665L313.873 436.138L307.697 427.754H310.801ZM325.96 444.458V427.754H328.776V444.458H325.96ZM325.96 424.618V421.098H328.776V424.618H325.96ZM332.023 439.626C332.023 438.559 332.321 437.642 332.919 436.874C333.537 436.084 334.38 435.476 335.447 435.05C336.513 434.623 337.751 434.41 339.159 434.41C339.905 434.41 340.695 434.474 341.527 434.602C342.359 434.708 343.095 434.879 343.735 435.114V433.898C343.735 432.618 343.351 431.615 342.583 430.89C341.815 430.143 340.727 429.77 339.319 429.77C338.401 429.77 337.516 429.94 336.663 430.282C335.831 430.602 334.945 431.071 334.007 431.69L332.983 429.706C334.071 428.959 335.159 428.404 336.247 428.042C337.335 427.658 338.465 427.466 339.639 427.466C341.772 427.466 343.457 428.063 344.695 429.258C345.932 430.431 346.551 432.074 346.551 434.186V441.258C346.551 441.599 346.615 441.855 346.743 442.026C346.892 442.175 347.127 442.26 347.447 442.282V444.458C347.169 444.5 346.924 444.532 346.711 444.554C346.519 444.575 346.359 444.586 346.231 444.586C345.569 444.586 345.068 444.404 344.727 444.042C344.407 443.679 344.225 443.295 344.183 442.89L344.119 441.834C343.393 442.772 342.444 443.498 341.271 444.01C340.097 444.522 338.935 444.778 337.783 444.778C336.673 444.778 335.681 444.554 334.807 444.106C333.932 443.636 333.249 443.018 332.759 442.25C332.268 441.46 332.023 440.586 332.023 439.626ZM342.903 440.81C343.159 440.511 343.361 440.212 343.511 439.914C343.66 439.594 343.735 439.327 343.735 439.114V437.034C343.073 436.778 342.38 436.586 341.655 436.458C340.929 436.308 340.215 436.234 339.51 436.234C338.081 436.234 336.919 436.522 336.023 437.098C335.148 437.652 334.711 438.42 334.711 439.402C334.711 439.935 334.849 440.458 335.127 440.97C335.425 441.46 335.852 441.866 336.407 442.186C336.983 442.506 337.687 442.666 338.519 442.666C339.393 442.666 340.225 442.495 341.015 442.154C341.804 441.791 342.433 441.343 342.903 440.81ZM354.93 444.458V430.25H349.17V427.754H363.506V430.25H357.746V444.458H354.93ZM375.327 444.778C373.961 444.778 372.745 444.436 371.679 443.754C370.612 443.071 369.769 442.207 369.151 441.162V451.274H366.335V427.754H368.831V430.89C369.492 429.866 370.356 429.044 371.423 428.426C372.489 427.786 373.652 427.466 374.911 427.466C376.063 427.466 377.119 427.7 378.079 428.17C379.039 428.639 379.871 429.279 380.575 430.09C381.279 430.9 381.823 431.828 382.207 432.874C382.612 433.898 382.815 434.975 382.815 436.106C382.815 437.684 382.495 439.135 381.855 440.458C381.236 441.78 380.361 442.836 379.231 443.626C378.1 444.394 376.799 444.778 375.327 444.778ZM374.463 442.346C375.295 442.346 376.041 442.175 376.703 441.834C377.385 441.471 377.961 441.002 378.431 440.426C378.921 439.828 379.295 439.156 379.551 438.41C379.807 437.663 379.935 436.895 379.935 436.106C379.935 435.274 379.785 434.484 379.487 433.738C379.209 432.991 378.804 432.33 378.271 431.754C377.759 431.178 377.151 430.73 376.447 430.41C375.764 430.068 375.017 429.898 374.207 429.898C373.695 429.898 373.161 429.994 372.607 430.186C372.073 430.378 371.561 430.655 371.071 431.018C370.58 431.359 370.164 431.754 369.823 432.202C369.481 432.65 369.257 433.13 369.151 433.642V438.41C369.471 439.135 369.897 439.796 370.431 440.394C370.964 440.991 371.583 441.471 372.286 441.834C372.991 442.175 373.716 442.346 374.463 442.346ZM386.24 444.458V427.786H389.056V440.682L398.4 427.754H400.96V444.458H398.144V431.818L388.928 444.458H386.24Z" fill="white"/>
<path fill-rule="evenodd" clip-rule="evenodd" d="M493.273 55.1906C491.838 55.4328 490.22 56.3572 489.036 57.6113C488.112 58.5897 487.772 58.5475 487.938 57.4757C488.173 55.9622 486.035 57.665 485.063 59.7664C484.572 60.8257 484.473 60.915 484.203 60.5415C483.937 60.1745 483.703 60.3628 482.396 61.9936C481.571 63.0242 480.621 64.4142 480.287 65.0824L479.678 66.2972L479.453 63.9126C479.007 59.1986 479.696 50.7675 480.751 48.0331C480.987 47.4214 480.94 47.3135 480.469 47.3893C479.671 47.5184 476.997 49.8042 475.507 51.6303C474.586 52.7595 474.156 53.1111 473.905 52.9399C473.626 52.7493 473.423 52.9764 472.81 54.1618C472.396 54.9625 471.861 56.3269 471.62 57.1941C471.191 58.7379 471.173 58.7641 470.743 58.4703C470.1 58.0317 469.821 58.6634 469.689 60.8579C469.591 62.4958 469.492 62.8055 469.071 62.7928C468.419 62.7729 468.065 63.9566 468.101 66.0393C468.124 67.3714 468.064 67.5453 467.583 67.5309C466.746 67.505 466.666 67.8897 467.229 69.2279C467.513 69.904 467.615 70.6523 467.456 70.8909C467.297 71.1298 467.279 71.5048 467.418 71.7249C467.556 71.9448 467.498 72.3127 467.288 72.5425C466.999 72.8588 467.075 73.1041 467.601 73.5542C468.123 74.0007 468.21 74.2757 467.952 74.6586C467.763 74.9393 467.712 75.2395 467.839 75.3262C467.966 75.4128 467.95 75.6614 467.804 75.8787C467.447 76.4077 468.271 76.9326 469.47 76.9395C470.632 76.946 470.727 77.2361 469.801 77.9462C469.055 78.519 468.877 78.481 465.956 77.1212C464.899 76.6286 463.864 76.2695 463.658 76.323C463.197 76.4425 462.641 78.7915 462.826 79.836C462.934 80.4439 463.097 80.5912 463.75 80.6698C464.934 80.8123 465.148 81.0844 464.288 81.3534C463.638 81.5567 463.522 81.6945 463.516 82.2678C463.503 83.45 464.013 87.7082 464.181 87.8225C464.269 87.883 464.902 87.4926 465.586 86.9552C469.042 84.2401 470.78 83.1121 471.56 83.0783C472.022 83.0583 473.643 83.3039 475.162 83.624C476.682 83.9442 478.491 84.2446 479.183 84.2917C481.766 84.4664 484.509 83.1387 486.66 80.6717C487.874 79.2798 488.385 79.029 489.622 79.2182L490.515 79.3552L490.108 78.4953C489.884 78.0224 489.671 77.2516 489.635 76.7822C489.5 75.0392 487.303 74.4584 484.982 75.5519C483.093 76.4427 482.58 76.2468 484.147 75.2331C486.177 73.9205 488.508 70.5435 489.945 66.8337C490.582 65.1904 491.281 62.986 491.499 61.9351C491.743 60.757 492.399 59.057 493.21 57.5018L494.526 54.9792L493.273 55.1906ZM437.957 98.9149C436.128 98.4418 434.826 98.4539 433.589 98.955C432.151 99.5375 429.361 101.386 429.323 101.782C429.307 101.944 429.652 102.321 430.089 102.619C431.036 103.266 430.843 103.78 429.784 103.429C429.121 103.209 427.104 101.374 426.058 100.039C425.734 99.6259 425.535 99.7086 424.572 100.655C423.959 101.256 423.258 101.9 423.013 102.085C422.689 102.331 422.692 102.555 423.026 102.907L423.484 103.39L422.94 103.071C422.545 102.839 422.286 102.917 421.991 103.355C421.362 104.288 421.023 106.912 421.449 107.546C421.754 108.001 422.132 108.053 423.324 107.808C425.229 107.417 429.288 107.455 429.894 107.87C430.15 108.045 430.721 109.114 431.163 110.246C431.662 111.524 432.112 112.268 432.351 112.208C432.927 112.066 433.074 112.267 432.839 112.879C432.669 113.319 433.039 113.841 434.672 115.466C436.656 117.439 437.72 119.017 437.394 119.5C437.05 120.01 437.636 124.221 438.41 126.804C438.86 128.303 439.809 130.756 440.52 132.254C441.231 133.753 441.955 135.67 442.129 136.515C442.303 137.36 442.54 138.027 442.654 137.998C443.219 137.851 444.091 130.548 444.742 120.502C445.03 116.07 444.981 115.064 444.394 113.295C444.019 112.164 443.61 111.083 443.485 110.894C443.094 110.303 444.311 109.879 445.593 110.16L446.757 110.415L446.893 108.455C447.118 105.21 445.939 104.268 442.563 104.998C440.84 105.37 440.111 105.154 439.647 104.135C439.43 103.656 439.538 103.391 440.319 102.488C441.188 101.483 441.22 101.366 440.809 100.717C440.242 99.8235 439.391 99.2858 437.957 98.9149ZM398.574 73.9083C397.033 74.6834 393.177 79.2857 392.17 81.552C391.723 82.5593 390.77 83.9591 389.167 85.9658C387.285 88.3236 386.794 89.0736 386.688 89.7581C386.576 90.4784 386.408 90.7082 385.611 91.23C384.729 91.8068 384.597 92.0295 383.616 94.5713C383.038 96.0695 382.285 98.2971 381.942 99.522C381.257 101.975 380.494 103.017 379.318 103.106C378.716 103.152 378.399 102.91 377.055 101.38C376.195 100.401 375.403 99.5356 375.295 99.4566C375.187 99.3775 374.659 100.064 374.121 100.983C373.069 102.781 373.067 103.424 374.111 103.77C374.838 104.012 374.72 104.346 373.878 104.428C373.366 104.478 373.237 104.646 372.884 105.714C372.199 107.789 371.706 110.068 371.912 110.209C372.02 110.282 373.44 109.861 375.069 109.273C376.697 108.685 378.44 108.231 378.943 108.264C379.567 108.306 380.609 108.835 382.237 109.941C386.464 112.807 388.203 113.024 392.051 111.163C394.102 110.171 394.55 110.069 395.238 110.435C396.103 110.895 396.396 110.736 396.212 109.909C396.148 109.621 396.202 108.959 396.332 108.439C396.601 107.357 395.962 106.05 395.009 105.733C394.652 105.615 393.724 105.607 392.946 105.715C390.724 106.024 390.599 105.735 392.142 103.839C392.858 102.958 394.413 101.381 395.597 100.334C396.782 99.2869 397.968 98.0989 398.233 97.694C398.498 97.2888 398.966 95.277 399.272 93.2232C399.966 88.5714 400.298 86.9951 401.153 84.3141C401.928 81.8825 401.882 81.3526 400.974 82.2576C400.623 82.608 400.176 83.0454 399.981 83.2296C399.186 83.9821 394.23 90.0504 393.127 91.6231C392.417 92.6349 393.002 91.4914 394.584 88.7734C396.038 86.2766 397.428 83.7653 397.673 83.1926C398.295 81.7415 399.841 73.9079 399.546 73.7064C399.413 73.6156 398.975 73.7063 398.574 73.9083ZM358.428 123.858C357.899 123.784 357.17 123.853 356.809 124.01C356.447 124.168 355.152 124.092 353.931 123.841C348.598 122.743 343.792 123.575 336.515 126.856C334.169 127.914 330.673 128.709 328.618 128.65C327.774 128.626 328.235 128.971 329.328 129.181L330.163 129.342L329.152 129.638C328.304 129.886 328.205 129.977 328.537 130.204C328.754 130.352 329.538 130.522 330.279 130.581C331.019 130.64 331.391 130.755 331.104 130.837C330.418 131.032 330.222 131.354 330.621 131.626C331.066 131.93 333.428 131.112 334.963 130.121C335.907 129.512 336.593 129.333 337.614 129.43C339.621 129.62 340.049 130.27 340.463 133.749C340.658 135.392 340.981 136.734 341.18 136.731C341.378 136.728 341.459 136.847 341.359 136.996C341.258 137.145 341.378 137.304 341.625 137.351C341.917 137.406 341.966 137.594 341.766 137.891C341.525 138.249 341.571 138.328 341.982 138.262C342.387 138.197 342.473 138.295 342.364 138.694C342.269 139.039 342.412 139.259 342.797 139.358C343.214 139.466 343.293 139.626 343.083 139.937C342.871 140.252 342.952 140.408 343.387 140.521C343.838 140.636 343.923 140.828 343.737 141.31C343.465 142.018 343.789 142.384 344.519 142.195C344.887 142.099 345.032 142.255 345.14 142.864C345.26 143.539 345.373 143.642 345.896 143.558C346.429 143.472 346.508 143.596 346.486 144.484C346.452 145.862 346.971 146.169 347.644 145.169L348.174 144.383L348.301 145.904C348.449 147.674 348.831 147.757 349.351 146.136C349.885 144.475 350.222 144.616 350.383 146.568C350.54 148.477 350.95 149.081 351.334 147.97C351.467 147.585 351.671 146.99 351.788 146.649C351.97 146.114 352.036 146.199 352.264 147.262C352.713 149.35 353.363 149.136 353.371 146.897C353.376 145.452 353.449 145.465 355.106 147.189C355.843 147.957 356.464 148.383 356.991 148.485C358.004 148.679 358.236 148.313 357.587 147.542C356.729 146.524 354.225 141.905 354.394 141.654C354.599 141.35 354.6 141.352 355.44 142.602C356.407 144.041 356.725 144.192 356.463 143.085L356.243 142.16L357.302 143.089C358.35 144.008 358.357 144.009 357.927 143.162L357.492 142.307L358.121 142.719C359.318 143.502 359.305 142.837 358.103 141.766C356.923 140.715 356.086 139.437 356.902 139.933C357.1 140.052 356.941 139.613 356.55 138.956C355.102 136.525 353.692 132.239 354.121 131.574C354.249 131.377 354.761 131.034 355.26 130.813C355.758 130.592 356.606 130.093 357.145 129.704C358.067 129.038 359.044 128.976 360.297 129.503C360.677 129.663 360.766 129.388 360.866 127.73C361.023 125.118 360.403 124.132 358.428 123.858Z" fill="white"/>
<path d="M240.482 194.302C240.751 193.876 241.47 193.28 242.08 192.978C244.355 191.848 245.708 192.44 247.396 195.305C248.468 197.123 248.57 197.476 248.056 197.581C246.361 197.926 245.377 198.693 244.878 200.058C244.587 200.855 244.048 201.99 243.68 202.581C243.312 203.172 243.015 203.901 243.021 204.201C243.042 205.21 247.569 208.71 250.819 210.231C251.698 210.642 252.177 210.991 251.884 211.006C250.672 211.071 252.461 211.815 254.451 212.075C256.477 212.339 256.963 213.03 255.146 213.065L254.191 213.083L255.256 213.672C256.31 214.254 256.302 214.258 254.546 214.043L252.771 213.826L253.659 214.643C254.721 215.62 254.279 215.69 252.239 214.869C250.467 214.156 250.464 214.155 250.464 214.622C250.464 215.009 256.381 218.074 258.007 218.53C259.238 218.875 259.254 219.428 258.048 219.951C257.421 220.223 256.465 220.22 255.143 219.941C252.174 219.315 252.088 219.355 253.108 220.88C254.689 223.244 254.157 223.937 252.202 222.06C251.206 221.104 251.077 221.062 251.265 221.757C251.385 222.2 251.591 222.973 251.725 223.474C252.109 224.921 251.248 224.579 249.727 222.682C248.173 220.741 247.718 220.835 248.335 222.967C248.937 225.05 248.475 225.235 247.064 223.478L245.85 221.967L245.85 223.176C245.85 224.713 245.086 224.762 244.143 223.287C243.536 222.336 243.364 222.262 242.864 222.735C242.373 223.2 242.181 223.172 241.576 222.547C241.03 221.984 240.766 221.924 240.446 222.289C239.811 223.013 239.211 222.86 238.995 221.919C238.848 221.278 238.623 221.137 238.066 221.339C237.528 221.534 237.331 221.428 237.331 220.943C237.331 220.465 237.134 220.352 236.62 220.539C236.144 220.711 235.836 220.582 235.691 220.15C235.523 219.651 235.362 219.61 234.983 219.97C234.597 220.335 234.492 220.284 234.492 219.734C234.492 219.278 234.306 219.115 233.959 219.267C233.666 219.395 233.427 219.313 233.427 219.084C233.427 218.855 233.257 218.787 233.05 218.934C232.843 219.08 231.551 217.898 230.178 216.308C227.273 212.941 226.361 212.565 224.112 213.806C222.967 214.438 222.372 215.12 221.81 216.44C220.896 218.586 218.989 221.145 218.305 221.145C217.69 221.145 217.669 220.665 218.253 219.967C218.497 219.675 218.024 219.821 217.202 220.291C216.38 220.761 215.434 221.145 215.1 221.145C214.589 221.145 214.629 220.978 215.346 220.107L216.201 219.068L215.208 219.499C213.907 220.064 213.176 220.032 214.082 219.45C216.288 218.035 219.407 214.686 221.127 211.885C226.462 203.199 230.934 198.868 237.331 196.191C238.795 195.579 240.213 194.729 240.482 194.302Z" fill="white"/>
<defs>
<linearGradient id="paint0_linear_174_1308" x1="119.04" y1="291.864" x2="119.04" y2="478.454" gradientUnits="userSpaceOnUse">
<stop offset="0.46875" stop-color="#8CE8FD"/>
<stop offset="1" stop-color="#2687E1"/>
</linearGradient>
</defs>
</svg>
