<svg width="1440" height="844" viewBox="0 0 1440 844" fill="none" xmlns="http://www.w3.org/2000/svg">
<path d="M0.0711737 642L0 642L0.0711737 642V642L1440 642V757H0.0711737V642Z" fill="#2F1C4F"/>
<path d="M0.0711949 712H0L0.071195 712L0.0711949 712H1440V810C308 921.891 486 712 0 772.824L0.0711949 712Z" fill="#2F1C4F"/>
<path d="M73.6605 598C24.1075 615.991 40.6524 642 40.6524 642H1431C1288.96 620 1327.97 580 1217.95 504C1117.92 456 765.779 469.879 855.216 218.012C944.653 -33.855 617.355 -23.3246 556.786 33.197C496.216 89.7187 577.33 118.674 478.224 106.681C379.118 94.6869 171.237 106.681 226.833 197.833C282.429 288.984 204.157 337.945 190.575 360.946C176.994 383.947 110.169 415.887 137.677 491.837C165.184 567.788 123.214 580.009 73.6605 598Z" fill="#2F1C4F"/>
</svg>
