<svg width="238" height="271" viewBox="0 0 238 271" fill="none" xmlns="http://www.w3.org/2000/svg">
<path d="M47.4237 102.944C47.4237 70.5348 52.2243 48.6696 63.6039 34.8998C74.9606 21.1576 92.9718 15.3638 119.715 15.3638C146.458 15.3638 164.127 21.1577 175.147 34.8941C186.192 48.6634 190.658 70.529 190.658 102.944V200.954H47.4233L47.4233 200.755L47.4234 198.742L47.4234 191.277L47.4235 166.107L47.4237 102.944Z" fill="url(#paint0_linear_174_1310)" stroke="white"/>
<line x1="51.8911" y1="70.8237" x2="51.8911" y2="199.946" stroke="white" stroke-width="3" stroke-linecap="round"/>
<line x1="1.5" y1="-1.5" x2="106.657" y2="-1.5" transform="matrix(-0.00458381 0.99999 -0.999989 -0.00464065 66.9146 79.7776)" stroke="white" stroke-width="3" stroke-linecap="round"/>
<line x1="1.5" y1="-1.5" x2="88.9635" y2="-1.5" transform="matrix(0.00602769 0.999982 -0.999981 0.00610243 78.3379 86.962)" stroke="white" stroke-width="3" stroke-linecap="round"/>
<line x1="1.5" y1="-1.5" x2="34.5834" y2="-1.5" transform="matrix(0.84429 0.535887 -0.531303 0.847182 50.731 71.934)" stroke="white" stroke-width="3" stroke-linecap="round"/>
<line x1="1.5" y1="-1.5" x2="30.9637" y2="-1.5" transform="matrix(0.992837 -0.119479 0.118073 0.993005 50.3911 135.385)" stroke="white" stroke-width="3" stroke-linecap="round"/>
<line x1="1.5" y1="-1.5" x2="38.7186" y2="-1.5" transform="matrix(0.748363 -0.66329 0.658703 0.752403 53.9526 202.726)" stroke="white" stroke-width="3" stroke-linecap="round"/>
<line x1="1.5" y1="-1.5" x2="130.622" y2="-1.5" transform="matrix(0 1 1 0 188.3 69.3237)" stroke="white" stroke-width="3" stroke-linecap="round"/>
<line x1="1.5" y1="-1.5" x2="106.657" y2="-1.5" transform="matrix(0.00458381 0.99999 0.999989 -0.00464065 171.777 79.7776)" stroke="white" stroke-width="3" stroke-linecap="round"/>
<line x1="1.5" y1="-1.5" x2="88.9635" y2="-1.5" transform="matrix(-0.00602769 0.999982 0.999981 0.00610243 160.354 86.962)" stroke="white" stroke-width="3" stroke-linecap="round"/>
<line x1="1.5" y1="-1.5" x2="34.5834" y2="-1.5" transform="matrix(-0.84429 0.535887 0.531303 0.847182 187.961 71.934)" stroke="white" stroke-width="3" stroke-linecap="round"/>
<line x1="1.5" y1="-1.5" x2="30.9637" y2="-1.5" transform="matrix(-0.992837 -0.119479 -0.118073 0.993005 188.3 135.385)" stroke="white" stroke-width="3" stroke-linecap="round"/>
<line x1="1.5" y1="-1.5" x2="38.7186" y2="-1.5" transform="matrix(-0.748363 -0.66329 -0.658703 0.752403 184.739 202.726)" stroke="white" stroke-width="3" stroke-linecap="round"/>
<line x1="48.9648" y1="69.9653" x2="189.816" y2="69.9653" stroke="white" stroke-width="4"/>
<line x1="1" y1="-1" x2="60.4352" y2="-1" transform="matrix(0.633218 0.773974 -0.783474 0.621425 79.8179 21.7745)" stroke="white" stroke-width="2" stroke-linecap="round"/>
<line x1="1" y1="-1" x2="60.4351" y2="-1" transform="matrix(0.633172 -0.774011 0.78351 0.621379 120.063 69.3249)" stroke="white" stroke-width="2" stroke-linecap="round"/>
<path d="M128.535 137.542C126.877 132.842 126.525 132.309 124.882 131.995C123.942 131.815 122.339 131.805 121.321 131.972C117.542 132.591 115.842 134.632 112.432 142.643C108.289 152.375 106.492 155.105 102.565 157.628C100.862 158.723 97.8826 161.687 95.9441 164.216C87.1491 175.689 85.8305 177.527 84.3223 180.414C83.4401 182.102 79.82 186.85 76.2785 190.964C67.8198 200.789 67.8087 200.805 67.5768 203.609C67.3516 206.33 67.705 206.564 73.0399 207.244C76.1222 207.636 77.8267 207.274 85.0861 204.688C94.8196 201.221 96.2907 200.95 99.8501 201.959C101.616 202.461 103.761 202.471 106.513 201.991C108.745 201.601 110.907 201.489 111.316 201.741C112.736 202.612 125.235 201.763 126.321 200.72C127.501 199.589 127.402 199.562 122.542 199.724C117.879 199.879 115.395 197.893 115.395 194.008C115.395 191.629 115.933 190.915 120.99 186.572C130.866 178.091 132.634 171.758 129.22 157.087C126.672 146.141 126.118 141.765 127.197 141.125C127.668 140.846 128.6 141.045 129.27 141.567C130.342 142.403 130.416 142.347 129.887 141.095C129.557 140.314 128.948 138.714 128.535 137.542Z" fill="white"/>
<path d="M128.535 137.542C126.877 132.842 126.525 132.309 124.882 131.995C123.942 131.815 122.339 131.805 121.321 131.972C117.542 132.591 115.842 134.632 112.432 142.643C108.289 152.375 106.492 155.105 102.565 157.628C100.862 158.723 97.8826 161.687 95.9441 164.216C87.1491 175.689 85.8305 177.527 84.3223 180.414C83.4401 182.102 79.82 186.85 76.2785 190.964C67.8198 200.789 67.8087 200.805 67.5768 203.609C67.3516 206.33 67.705 206.564 73.0399 207.244C76.1222 207.636 77.8267 207.274 85.0861 204.688C94.8196 201.221 96.2907 200.95 99.8501 201.959C101.616 202.461 103.761 202.471 106.513 201.991C108.745 201.601 110.907 201.489 111.316 201.741C112.736 202.612 125.235 201.763 126.321 200.72C127.501 199.589 127.402 199.562 122.542 199.724C117.879 199.879 115.395 197.893 115.395 194.008C115.395 191.629 115.933 190.915 120.99 186.572C130.866 178.091 132.634 171.758 129.22 157.087C126.672 146.141 126.118 141.765 127.197 141.125C127.668 140.846 128.6 141.045 129.27 141.567C130.342 142.403 130.416 142.347 129.887 141.095C129.557 140.314 128.948 138.714 128.535 137.542Z" stroke="white"/>
<path d="M236.742 200.803V200.303H236.242H209.539V94.757C209.539 64.4006 201.374 41.1384 184.971 25.0528C168.783 8.76872 146.697 0.650879 118.775 0.650879C90.8523 0.650879 68.6643 8.76953 52.271 25.0529C36.0737 41.1388 28.0118 64.401 28.0118 94.757V200.303H1.30912H0.811365L0.809126 200.8L0.500005 269.528L0.497746 270.03H1H22.3294H22.8262L22.8294 269.533L23.1354 221.205H214.412V269.53V270.03H214.912H236.242H236.742V269.53V200.803ZM167.877 40.0623L167.883 40.0684C179.709 51.7599 185.664 69.2327 185.664 92.5801V200.303H51.5777V92.5801C51.5777 69.2305 57.4311 51.7566 69.0523 40.0654C80.8879 28.1584 97.439 22.1758 118.775 22.1758C139.904 22.1758 156.248 28.1577 167.877 40.0623Z" fill="white" stroke="white"/>
<defs>
<linearGradient id="paint0_linear_174_1310" x1="119.04" y1="14.8638" x2="119.04" y2="201.454" gradientUnits="userSpaceOnUse">
<stop offset="0.46875" stop-color="#8CE8FD"/>
<stop offset="1" stop-color="#2687E1"/>
</linearGradient>
</defs>
</svg>
