<svg width="40" height="48" viewBox="0 0 40 48" fill="none" xmlns="http://www.w3.org/2000/svg">
<path fill-rule="evenodd" clip-rule="evenodd" d="M40 48V36.5688H35.2941V16.4809C35.2941 11.1538 33.9216 7.08439 31.1765 4.27283C28.467 1.42428 24.7415 0 20 0C15.2941 0 11.5686 1.42428 8.82353 4.27283C6.11408 7.08439 4.75936 11.1538 4.75936 16.4809V36.5688H0.0534758L0 48H2.62032L2.6738 39.1214H37.3797V48H40ZM32.5134 16.2035V36.5688H23.669C22.9928 36.3233 22.6444 35.7774 22.6538 34.9561C22.662 34.2309 22.8241 34.0144 24.3398 32.7027C27.3 30.1409 27.8465 28.2144 26.8843 23.7336C26.1664 20.3905 26.0172 19.0551 26.3395 18.8626C26.4802 18.7786 26.7875 18.8649 26.9844 19.0258C27.0157 19.0492 27.1237 19.0129 27.0663 18.8685C27.0153 18.7404 26.9619 18.5381 26.9051 18.3227C26.8559 18.1361 26.8042 17.9398 26.7491 17.7734C26.2733 16.3365 26.171 16.1732 25.6843 16.0735C25.406 16.0166 24.9306 16.0095 24.6277 16.058C23.5041 16.2378 22.9926 16.8558 21.953 19.2897C20.6898 22.2469 20.147 23.0746 18.973 23.8345C18.4639 24.1641 17.5695 25.0607 16.9855 25.8269C14.3358 29.3035 13.9382 29.8607 13.4806 30.737C13.213 31.2497 12.1223 32.6883 11.057 33.9341C9.85147 35.3437 9.21642 36.0865 8.87355 36.5688H7.54011V16.2035C7.54011 11.7272 8.62745 8.3422 10.8021 6.04856C12.9768 3.75491 16.0428 2.60809 20 2.60809C23.9572 2.60809 27.0232 3.75491 29.1979 6.04856C31.4082 8.3422 32.5134 11.7272 32.5134 16.2035Z" fill="white"/>
</svg>
