<svg width="76" height="92" viewBox="0 0 76 92" fill="none" xmlns="http://www.w3.org/2000/svg">
<path fill-rule="evenodd" clip-rule="evenodd" d="M76 92V70.0902H67.0588V31.5884C67.0588 21.378 64.451 13.5784 59.2353 8.1896C54.0873 2.72987 47.0089 0 38 0C29.0588 0 21.9804 2.72987 16.7647 8.1896C11.6168 13.5784 9.04278 21.378 9.04278 31.5884V70.0902H0.101604L0 92H4.97861L5.08021 74.9827H71.0214V92H76ZM61.7754 31.0566V70.0902H37.4477C37.0095 69.6998 36.7838 69.1279 36.7838 68.3848C36.7838 67.4197 37.0035 67.13 39.0692 65.3683C43.1036 61.9277 43.8255 59.3585 42.4309 53.4069C41.3903 48.9664 41.164 47.1912 41.6046 46.9317C41.797 46.8184 42.2213 46.9299 42.4949 47.1419C42.5382 47.1727 42.6863 47.1232 42.605 46.9317C42.5329 46.7618 42.4563 46.4931 42.3747 46.2072C42.3041 45.9595 42.2297 45.6988 42.1513 45.478C41.4739 43.5713 41.3304 43.3551 40.659 43.2276C40.275 43.155 39.6205 43.1506 39.2045 43.2184C37.6607 43.4698 36.9663 44.2976 35.5735 47.5473C33.8812 51.4956 33.1471 52.6028 31.5431 53.6266C30.8475 54.0706 29.6305 55.2732 28.8386 56.2991C25.2461 60.9535 24.7075 61.6991 24.0914 62.87C23.7311 63.555 22.2523 65.481 20.8057 67.1501C19.5974 68.5439 18.8111 69.4511 18.2953 70.0902H14.3262V31.0566C14.3262 22.4771 16.3922 15.9892 20.5241 11.5931C24.656 7.19692 30.4813 4.99884 38 4.99884C45.5187 4.99884 51.344 7.19692 55.4759 11.5931C59.6756 15.9892 61.7754 22.4771 61.7754 31.0566Z" fill="white"/>
</svg>
