<svg width="86" height="96" viewBox="0 0 86 96" fill="none" xmlns="http://www.w3.org/2000/svg">
<path d="M85.3932 71.416V96H77.7056V78.5353H8.40549L8.29408 96H0.606445L0.71786 71.416H10.5224V33.4832C10.5224 22.6559 13.4192 14.387 19.2127 8.67671C25.0806 2.89224 33.0282 0 43.0555 0C53.0829 0 60.9933 2.89224 66.7869 8.67671C72.6548 14.387 75.5887 22.6559 75.5887 33.4832V71.416H85.3932ZM67.344 71.416V32.7045C67.344 24.3244 65.19 18.0209 60.8819 13.7937C56.6482 9.49247 50.706 7.34183 43.0555 7.34183C35.3308 7.34183 29.3144 9.49247 25.0063 13.7937C20.7725 18.0209 18.6557 24.3244 18.6557 32.7045V71.416H67.344Z" fill="white"/>
<path d="M42.5729 46.2168C41.8742 44.1594 41.7263 43.926 41.0338 43.7885C40.6377 43.7101 39.9627 43.7054 39.5336 43.7785C37.9414 44.0498 37.2251 44.9431 35.7886 48.4498C34.0432 52.7104 33.2861 53.9051 31.6317 55.0099C30.9143 55.4891 29.6591 56.7868 28.8424 57.8938C25.137 62.9163 24.5815 63.7209 23.9461 64.9844C23.5745 65.7236 22.0493 67.8019 20.5573 69.6031C16.9936 73.9038 16.9889 73.911 16.8913 75.1384C16.7964 76.3294 16.9453 76.432 19.1929 76.7295C20.4914 76.9012 21.2095 76.7428 24.2679 75.6107C28.3686 74.093 28.9884 73.9741 30.488 74.4162C31.2319 74.6356 32.1354 74.6399 33.2951 74.4299C34.2354 74.2594 35.1461 74.2103 35.3186 74.3204C35.9166 74.7019 41.1826 74.3301 41.6401 73.8736C42.1373 73.3783 42.0954 73.3668 40.0482 73.4377C38.0837 73.5056 37.0369 72.6359 37.0369 70.9353C37.0369 69.894 37.2635 69.5813 39.3941 67.6803C43.555 63.9676 44.2997 61.1952 42.8613 54.7729C41.788 49.9812 41.5546 48.0656 42.009 47.7856C42.2075 47.6633 42.6004 47.7504 42.8825 47.9791C43.3341 48.345 43.3653 48.3204 43.1425 47.7725C43.0036 47.4302 42.7471 46.7302 42.5729 46.2168Z" fill="white"/>
</svg>
