<svg width="104" height="119" viewBox="0 0 104 119" fill="none" xmlns="http://www.w3.org/2000/svg">
<path fill-rule="evenodd" clip-rule="evenodd" d="M104 119V97.4129H91.7647V43.7263C91.7647 29.7542 88.1961 19.081 81.0588 11.7068C74.0143 4.23561 64.328 0 52 0C39.7647 0 30.0784 4.23561 22.9412 11.7068C15.8966 19.081 12.3743 29.7542 12.3743 43.7263V97.4129H0.139037L0 119H6.81283L6.95187 104.108H97.1872V119H104ZM84.5348 42.9986V97.4129H51.2387C50.639 96.8787 50.3301 96.0961 50.3301 95.0791C50.3301 93.7586 50.6307 93.362 53.4575 90.9514C58.9782 86.2432 59.9661 82.7274 58.0577 74.5831C56.6338 68.5067 56.3241 66.0774 56.9269 65.7224C57.1903 65.5673 57.7709 65.7199 58.1452 66.0099C58.2046 66.0521 58.4072 65.9843 58.296 65.7224C58.1973 65.4898 58.0924 65.1222 57.9808 64.7309C57.8841 64.3919 57.7824 64.0352 57.6751 63.733C56.7481 61.1239 56.5518 60.828 55.633 60.6536C55.1076 60.5542 54.212 60.5482 53.6426 60.6409C51.5301 60.985 50.5798 62.1178 48.6739 66.5647C46.3581 71.9677 45.3536 73.4827 43.1586 74.8838C42.2067 75.4914 40.5414 77.137 39.4578 78.5408C34.5416 84.91 33.8046 85.9303 32.9616 87.5326C32.4685 88.47 30.4449 91.1056 28.4653 93.3896C26.8118 95.2969 25.7358 96.5383 25.0301 97.4129H19.6043V42.9986C19.6043 31.2581 22.4314 22.38 28.0856 16.3642C33.7398 10.3484 41.7112 6.84 52 6.84C62.2888 6.84 70.2603 10.3484 75.9144 16.3642C81.6613 22.38 84.5348 31.2581 84.5348 42.9986Z" fill="white"/>
</svg>
