<svg width="160" height="192" viewBox="0 0 160 192" fill="none" xmlns="http://www.w3.org/2000/svg">
<path fill-rule="evenodd" clip-rule="evenodd" d="M160 192V146.275H141.176V65.9237C141.176 44.615 135.686 28.3376 124.706 17.0913C113.868 5.69711 98.9661 0 80 0C61.1765 0 46.2745 5.69711 35.2941 17.0913C24.4563 28.3376 19.0374 44.615 19.0374 65.9237V146.275H0.213903L0 192H10.4813L10.6952 156.486H149.519V192H160ZM130.053 64.8139V146.275H78.6947C79.1961 145.738 78.8239 145.735 75.9595 145.832C72.8649 145.936 71.216 144.595 71.216 141.972C71.216 140.365 71.5729 139.883 74.9291 136.951C81.4836 131.223 82.6566 126.947 80.3908 117.04C78.7002 109.648 78.3324 106.693 79.0482 106.261C79.3609 106.073 80.0503 106.258 80.4947 106.611C80.5651 106.662 80.8057 106.58 80.6737 106.261C80.5564 105.978 80.4319 105.531 80.2994 105.055C80.1847 104.643 80.0639 104.209 79.9365 103.841C78.8359 100.668 78.6028 100.308 77.512 100.096C76.8881 99.9746 75.8248 99.9674 75.1488 100.08C72.6407 100.499 71.5125 101.877 69.2496 107.286C66.5001 113.858 65.3074 115.701 62.7015 117.406C61.5713 118.145 59.594 120.146 58.3075 121.854C52.4707 129.602 51.5957 130.843 50.5948 132.792C50.0093 133.932 47.6068 137.138 45.2565 139.917C42.1616 143.574 40.7708 145.219 40.1199 146.275H30.1604V64.8139C30.1604 46.9087 34.5098 33.3688 43.2086 24.1942C51.9073 15.0197 64.1711 10.4324 80 10.4324C95.8289 10.4324 108.093 15.0197 116.791 24.1942C125.633 33.3688 130.053 46.9087 130.053 64.8139Z" fill="white"/>
</svg>
