<svg width="344" height="256" viewBox="0 0 344 256" fill="none" xmlns="http://www.w3.org/2000/svg">
<path d="M297.015 250.033L297.018 250.035C301.447 252.692 306.678 254 312.671 254C318.663 254 323.881 252.692 328.285 250.034C332.701 247.384 336.09 243.674 338.444 238.929C340.825 234.185 341.999 228.699 341.999 222.5C341.999 216.301 340.825 210.815 338.444 206.071C336.09 201.326 332.7 197.616 328.284 194.966C323.881 192.308 318.663 191 312.671 191C306.678 191 301.447 192.308 297.018 194.965L297.015 194.967C292.626 197.617 289.238 201.326 286.857 206.069L286.857 206.069L286.855 206.074C284.502 210.817 283.342 216.302 283.342 222.5C283.342 228.698 284.502 234.183 286.855 238.926L286.857 238.931C289.238 243.674 292.626 247.383 297.015 250.033ZM326.519 232.775L326.519 232.775L326.516 232.783C325.365 235.653 323.645 237.83 321.367 239.36C319.111 240.875 316.24 241.641 312.685 241.589C309.124 241.537 306.24 240.719 303.975 239.197C301.691 237.663 299.957 235.508 298.781 232.692C297.625 229.857 297.03 226.468 297.03 222.5C297.03 218.533 297.624 215.113 298.784 212.221C299.961 209.349 301.695 207.171 303.975 205.64C306.23 204.125 309.102 203.359 312.656 203.411C316.218 203.463 319.101 204.281 321.367 205.803C323.65 207.336 325.369 209.49 326.518 212.305L326.518 212.305L326.521 212.312C327.703 215.145 328.311 218.533 328.311 222.5C328.311 226.467 327.704 229.884 326.519 232.775Z" fill="white" stroke="white" stroke-width="2"/>
<path d="M230 252V253H231H242.127H243.127V252V233.006H255.873C256.446 233.006 257.231 232.977 258.219 232.922C259.222 232.866 260.125 232.782 260.923 232.668L260.923 232.668L260.936 232.666C264.557 232.099 267.592 230.885 269.992 228.98C272.393 227.096 274.163 224.728 275.292 221.889C276.436 219.051 277 215.918 277 212.503C277 209.09 276.451 205.972 275.334 203.162C274.207 200.296 272.437 197.911 270.033 196.025C267.634 194.122 264.588 192.908 260.946 192.341C260.13 192.196 259.215 192.111 258.206 192.083C257.25 192.028 256.47 192 255.873 192H231H230V193V252ZM258.882 220.224L258.882 220.224L258.87 220.227C258.37 220.371 257.809 220.47 257.184 220.52C256.524 220.573 255.923 220.599 255.382 220.599H243.127V204.407H255.382C255.923 204.407 256.524 204.433 257.184 204.486C257.809 204.536 258.37 204.635 258.87 204.778L258.87 204.778L258.882 204.781C260.228 205.149 261.193 205.751 261.854 206.546L261.854 206.546L261.863 206.556C262.582 207.397 263.068 208.336 263.33 209.385L263.333 209.398L263.337 209.411C263.643 210.511 263.791 211.54 263.791 212.503C263.791 213.466 263.643 214.51 263.335 215.641L263.333 215.648L263.331 215.656C263.07 216.677 262.585 217.621 261.859 218.495C261.198 219.264 260.232 219.856 258.882 220.224Z" fill="white" stroke="white" stroke-width="2"/>
<path d="M47.5003 99.6089C47.5003 69.2126 51.8943 48.7129 62.3022 35.8065C72.6847 22.9315 89.1508 17.5 113.617 17.5C138.083 17.5 154.237 22.9315 164.31 35.8008C174.413 48.7068 178.5 69.2071 178.5 99.6089V191.5H47.5L47.5 191.345L47.5 189.457L47.5 182.455L47.5001 158.848L47.5003 99.6089Z" fill="url(#paint0_linear_1936_3349)" stroke="white"/>
<line x1="51.6816" y1="72.4375" x2="51.6816" y2="190.246" stroke="white" stroke-width="3" stroke-linecap="round"/>
<line x1="1.5" y1="-1.5" x2="98.1663" y2="-1.5" transform="matrix(-0.00457582 0.99999 -0.999989 -0.00464875 65.2637 80.4963)" stroke="white" stroke-width="3" stroke-linecap="round"/>
<line x1="1.5" y1="-1.5" x2="80.7932" y2="-1.5" transform="matrix(0.00601718 0.999982 -0.999981 0.00611308 76.2969 87.98)" stroke="white" stroke-width="3" stroke-linecap="round"/>
<line x1="1.5" y1="-1.5" x2="30.9198" y2="-1.5" transform="matrix(0.843866 0.536553 -0.530638 0.847599 50.4922 73.3242)" stroke="white" stroke-width="3" stroke-linecap="round"/>
<line x1="1.5" y1="-1.5" x2="27.7096" y2="-1.5" transform="matrix(0.992837 -0.119479 0.118073 0.993005 50.1816 131.342)" stroke="white" stroke-width="3" stroke-linecap="round"/>
<line x1="1.5" y1="-1.5" x2="34.1256" y2="-1.5" transform="matrix(0.747788 -0.663937 0.658052 0.752972 53.4336 192.916)" stroke="white" stroke-width="3" stroke-linecap="round"/>
<line x1="1.5" y1="-1.5" x2="119.309" y2="-1.5" transform="matrix(0 1 1 0 174.322 70.9375)" stroke="white" stroke-width="3" stroke-linecap="round"/>
<line x1="1.5" y1="-1.5" x2="98.1663" y2="-1.5" transform="matrix(0.00457582 0.99999 0.999989 -0.00464875 159.24 80.4963)" stroke="white" stroke-width="3" stroke-linecap="round"/>
<line x1="1.5" y1="-1.5" x2="80.7932" y2="-1.5" transform="matrix(-0.00601718 0.999982 0.999981 0.00611308 148.207 87.9797)" stroke="white" stroke-width="3" stroke-linecap="round"/>
<line x1="1.5" y1="-1.5" x2="30.9198" y2="-1.5" transform="matrix(-0.843866 0.536553 0.530638 0.847599 174.012 73.3242)" stroke="white" stroke-width="3" stroke-linecap="round"/>
<line x1="1.5" y1="-1.5" x2="27.7096" y2="-1.5" transform="matrix(-0.992812 -0.119685 -0.11787 0.993029 174.322 131.342)" stroke="white" stroke-width="3" stroke-linecap="round"/>
<line x1="1.5" y1="-1.5" x2="34.1256" y2="-1.5" transform="matrix(-0.747788 -0.663937 -0.658052 0.752972 171.07 192.916)" stroke="white" stroke-width="3" stroke-linecap="round"/>
<line x1="48.7812" y1="70.0242" x2="177.347" y2="70.0242" stroke="white" stroke-width="3"/>
<line x1="1.5" y1="-1.5" x2="54.6352" y2="-1.5" transform="matrix(0.632556 0.774515 -0.782946 0.62209 76.9434 27.4602)" stroke="white" stroke-width="3" stroke-linecap="round"/>
<line x1="1.5" y1="-1.5" x2="54.6352" y2="-1.5" transform="matrix(0.63251 -0.774552 0.782982 0.622044 113.678 70.9387)" stroke="white" stroke-width="3" stroke-linecap="round"/>
<path d="M107.487 148.841C106.387 145.668 106.154 145.308 105.063 145.096C104.439 144.975 103.376 144.967 102.7 145.08C100.191 145.499 99.0632 146.877 96.8004 152.286C94.0509 158.858 92.8582 160.701 90.2522 162.406C89.1221 163.145 87.1448 165.146 85.8583 166.854C80.0215 174.602 79.1465 175.843 78.1456 177.792C77.5601 178.932 75.1576 182.138 72.8072 184.917C67.1936 191.551 67.1863 191.562 67.0324 193.455C66.8829 195.292 67.1174 195.451 70.658 195.91C72.7035 196.175 73.8347 195.93 78.6524 194.184C85.1121 191.843 86.0884 191.659 88.4505 192.341C89.6225 192.68 91.0457 192.686 92.8725 192.362C94.3537 192.099 95.7882 192.024 96.06 192.193C97.0019 192.782 105.297 192.208 106.018 191.504C106.801 190.74 106.735 190.722 103.51 190.832C100.416 190.936 98.7668 189.595 98.7668 186.972C98.7668 185.365 99.1237 184.883 102.48 181.951C109.034 176.223 110.207 171.947 107.942 162.04C106.251 154.648 105.883 151.693 106.599 151.261C106.912 151.073 107.601 151.258 108.045 151.611C108.116 151.662 108.356 151.58 108.224 151.261C108.107 150.978 107.983 150.531 107.85 150.055C107.735 149.643 107.615 149.209 107.487 148.841Z" fill="white"/>
<path d="M107.487 148.841C106.387 145.668 106.154 145.308 105.063 145.096C104.439 144.975 103.376 144.967 102.7 145.08C100.191 145.499 99.0632 146.877 96.8004 152.286C94.0509 158.858 92.8582 160.701 90.2522 162.406C89.1221 163.145 87.1448 165.146 85.8583 166.854C80.0215 174.602 79.1465 175.843 78.1456 177.792C77.5601 178.932 75.1576 182.138 72.8072 184.917C67.1936 191.551 67.1863 191.562 67.0324 193.455C66.8829 195.292 67.1174 195.451 70.658 195.91C72.7035 196.175 73.8347 195.93 78.6524 194.184C85.1121 191.843 86.0884 191.659 88.4505 192.341C89.6225 192.68 91.0457 192.686 92.8725 192.362C94.3537 192.099 95.7882 192.024 96.06 192.193C97.0019 192.782 105.297 192.208 106.018 191.504C106.801 190.74 106.735 190.722 103.51 190.832C100.416 190.936 98.7668 189.595 98.7668 186.972C98.7668 185.365 99.1237 184.883 102.48 181.951C109.034 176.223 110.207 171.947 107.942 162.04C106.251 154.648 105.883 151.693 106.599 151.261C106.912 151.073 107.601 151.258 108.045 151.611C108.116 151.662 108.356 151.58 108.224 151.261C108.107 150.978 107.983 150.531 107.85 150.055C107.735 149.643 107.615 149.209 107.487 148.841Z" stroke="white"/>
<path d="M220 191.26V254H200.506V209.429H24.7766L24.4941 254H5L5.28252 191.26H30.1445V87.4519C30.1445 59.8196 37.4901 38.7169 52.1813 24.1437C67.0609 9.38123 87.2142 2 112.641 2C138.068 2 158.127 9.38123 172.819 24.1437C187.698 38.7169 195.138 59.8196 195.138 87.4519V191.26H220ZM174.231 191.26V85.4647C174.231 64.078 168.769 47.9907 157.845 37.2028C147.109 26.2256 132.041 20.737 112.641 20.737C93.053 20.737 77.7968 26.2256 66.8725 37.2028C56.1367 47.9907 50.7687 64.078 50.7687 85.4647V191.26H174.231Z" fill="white"/>
<defs>
<linearGradient id="paint0_linear_1936_3349" x1="113" y1="17" x2="113" y2="192" gradientUnits="userSpaceOnUse">
<stop offset="0.46875" stop-color="#8CE8FD"/>
<stop offset="1" stop-color="#2687E1"/>
</linearGradient>
</defs>
</svg>
