<svg width="303" height="225" viewBox="0 0 303 225" fill="none" xmlns="http://www.w3.org/2000/svg">
<path fill-rule="evenodd" clip-rule="evenodd" d="M280.273 55.1906C278.838 55.4328 277.22 56.3572 276.036 57.6113C275.112 58.5897 274.772 58.5475 274.938 57.4757C275.173 55.9622 273.035 57.665 272.063 59.7664C271.572 60.8257 271.473 60.915 271.203 60.5415C270.937 60.1745 270.703 60.3628 269.396 61.9936C268.571 63.0242 267.621 64.4142 267.287 65.0824L266.678 66.2972L266.453 63.9126C266.007 59.1986 266.696 50.7675 267.751 48.0331C267.987 47.4214 267.94 47.3135 267.469 47.3893C266.671 47.5184 263.997 49.8042 262.507 51.6303C261.586 52.7595 261.156 53.1111 260.905 52.9399C260.626 52.7493 260.423 52.9764 259.81 54.1618C259.396 54.9625 258.861 56.3269 258.62 57.1941C258.191 58.7379 258.173 58.7641 257.743 58.4703C257.1 58.0317 256.821 58.6634 256.689 60.8579C256.591 62.4958 256.492 62.8055 256.071 62.7928C255.419 62.7729 255.065 63.9566 255.101 66.0393C255.124 67.3714 255.064 67.5453 254.583 67.5309C253.746 67.505 253.666 67.8897 254.229 69.2279C254.513 69.904 254.615 70.6523 254.456 70.8909C254.297 71.1298 254.279 71.5048 254.418 71.7249C254.556 71.9448 254.498 72.3127 254.288 72.5425C253.999 72.8588 254.075 73.1041 254.601 73.5542C255.123 74.0007 255.21 74.2757 254.952 74.6586C254.763 74.9393 254.712 75.2395 254.839 75.3262C254.966 75.4128 254.95 75.6614 254.804 75.8787C254.447 76.4077 255.271 76.9326 256.47 76.9395C257.632 76.946 257.727 77.2361 256.801 77.9462C256.055 78.519 255.877 78.481 252.956 77.1212C251.899 76.6286 250.864 76.2695 250.658 76.323C250.197 76.4425 249.641 78.7915 249.826 79.836C249.934 80.4439 250.097 80.5912 250.75 80.6698C251.934 80.8123 252.148 81.0844 251.288 81.3534C250.638 81.5567 250.522 81.6945 250.516 82.2678C250.503 83.45 251.013 87.7082 251.181 87.8225C251.269 87.883 251.902 87.4926 252.586 86.9552C256.042 84.2401 257.78 83.1121 258.56 83.0783C259.022 83.0583 260.643 83.3039 262.162 83.624C263.682 83.9442 265.491 84.2446 266.183 84.2917C268.766 84.4664 271.509 83.1387 273.66 80.6717C274.874 79.2798 275.385 79.029 276.622 79.2182L277.515 79.3552L277.108 78.4953C276.884 78.0224 276.671 77.2516 276.635 76.7822C276.5 75.0392 274.303 74.4584 271.982 75.5519C270.093 76.4427 269.58 76.2468 271.147 75.2331C273.177 73.9205 275.508 70.5435 276.945 66.8337C277.582 65.1904 278.281 62.986 278.499 61.9351C278.743 60.757 279.399 59.057 280.21 57.5018L281.526 54.9792L280.273 55.1906ZM224.957 98.9149C223.128 98.4418 221.826 98.4539 220.589 98.955C219.151 99.5375 216.361 101.386 216.323 101.782C216.307 101.944 216.652 102.321 217.089 102.619C218.036 103.266 217.843 103.78 216.784 103.429C216.121 103.209 214.104 101.374 213.058 100.039C212.734 99.6259 212.535 99.7086 211.572 100.655C210.959 101.256 210.258 101.9 210.013 102.085C209.689 102.331 209.692 102.555 210.026 102.907L210.484 103.39L209.94 103.071C209.545 102.839 209.286 102.917 208.991 103.355C208.362 104.288 208.023 106.912 208.449 107.546C208.754 108.001 209.132 108.053 210.324 107.808C212.229 107.417 216.288 107.455 216.894 107.87C217.15 108.045 217.721 109.114 218.163 110.246C218.662 111.524 219.112 112.268 219.351 112.208C219.927 112.066 220.074 112.267 219.839 112.879C219.669 113.319 220.039 113.841 221.672 115.466C223.656 117.439 224.72 119.017 224.394 119.5C224.05 120.01 224.636 124.221 225.41 126.804C225.86 128.303 226.809 130.756 227.52 132.254C228.231 133.753 228.955 135.67 229.129 136.515C229.303 137.36 229.54 138.027 229.654 137.998C230.219 137.851 231.091 130.548 231.742 120.502C232.03 116.07 231.981 115.064 231.394 113.295C231.019 112.164 230.61 111.083 230.485 110.894C230.094 110.303 231.311 109.879 232.593 110.16L233.757 110.415L233.893 108.455C234.118 105.21 232.939 104.268 229.563 104.998C227.84 105.37 227.111 105.154 226.647 104.135C226.43 103.656 226.538 103.391 227.319 102.488C228.188 101.483 228.22 101.366 227.809 100.717C227.242 99.8235 226.391 99.2858 224.957 98.9149ZM185.574 73.9083C184.033 74.6834 180.177 79.2857 179.17 81.552C178.723 82.5593 177.77 83.9591 176.167 85.9658C174.285 88.3236 173.794 89.0736 173.688 89.7581C173.576 90.4784 173.408 90.7082 172.611 91.23C171.729 91.8068 171.597 92.0295 170.616 94.5713C170.038 96.0695 169.285 98.2971 168.942 99.522C168.257 101.975 167.494 103.017 166.318 103.106C165.716 103.152 165.399 102.91 164.055 101.38C163.195 100.401 162.403 99.5356 162.295 99.4566C162.187 99.3775 161.659 100.064 161.121 100.983C160.069 102.781 160.067 103.424 161.111 103.77C161.838 104.012 161.72 104.346 160.878 104.428C160.366 104.478 160.237 104.646 159.884 105.714C159.199 107.789 158.706 110.068 158.912 110.209C159.02 110.282 160.44 109.861 162.069 109.273C163.697 108.685 165.44 108.231 165.943 108.264C166.567 108.306 167.609 108.835 169.237 109.941C173.464 112.807 175.203 113.024 179.051 111.163C181.102 110.171 181.55 110.069 182.238 110.435C183.103 110.895 183.396 110.736 183.212 109.909C183.148 109.621 183.202 108.959 183.332 108.439C183.601 107.357 182.962 106.05 182.009 105.733C181.652 105.615 180.724 105.607 179.946 105.715C177.724 106.024 177.599 105.735 179.142 103.839C179.858 102.958 181.413 101.381 182.597 100.334C183.782 99.2869 184.968 98.0989 185.233 97.694C185.498 97.2888 185.966 95.277 186.272 93.2232C186.966 88.5714 187.298 86.9951 188.153 84.3141C188.928 81.8825 188.882 81.3526 187.974 82.2576C187.623 82.608 187.176 83.0454 186.981 83.2296C186.186 83.9821 181.23 90.0504 180.127 91.6231C179.417 92.6349 180.002 91.4914 181.584 88.7734C183.038 86.2766 184.428 83.7653 184.673 83.1926C185.295 81.7415 186.841 73.9079 186.546 73.7064C186.413 73.6156 185.975 73.7063 185.574 73.9083ZM145.428 123.858C144.899 123.784 144.17 123.853 143.809 124.01C143.447 124.168 142.152 124.092 140.931 123.841C135.598 122.743 130.792 123.575 123.515 126.856C121.169 127.914 117.673 128.709 115.618 128.65C114.774 128.626 115.235 128.971 116.328 129.181L117.163 129.342L116.152 129.638C115.304 129.886 115.205 129.977 115.537 130.204C115.754 130.352 116.538 130.522 117.279 130.581C118.019 130.64 118.391 130.755 118.104 130.837C117.418 131.032 117.222 131.354 117.621 131.626C118.066 131.93 120.428 131.112 121.963 130.121C122.907 129.512 123.593 129.333 124.614 129.43C126.621 129.62 127.049 130.27 127.463 133.749C127.658 135.392 127.981 136.734 128.18 136.731C128.378 136.728 128.459 136.847 128.359 136.996C128.258 137.145 128.378 137.304 128.625 137.351C128.917 137.406 128.966 137.594 128.766 137.891C128.525 138.249 128.571 138.328 128.982 138.262C129.387 138.197 129.473 138.295 129.364 138.694C129.269 139.039 129.412 139.259 129.797 139.358C130.214 139.466 130.293 139.626 130.083 139.937C129.871 140.252 129.952 140.408 130.387 140.521C130.838 140.636 130.923 140.828 130.737 141.31C130.465 142.018 130.789 142.384 131.519 142.195C131.887 142.099 132.032 142.255 132.14 142.864C132.26 143.539 132.373 143.642 132.896 143.558C133.429 143.472 133.508 143.596 133.486 144.484C133.452 145.862 133.971 146.169 134.644 145.169L135.174 144.383L135.301 145.904C135.449 147.674 135.831 147.757 136.351 146.136C136.885 144.475 137.222 144.616 137.383 146.568C137.54 148.477 137.95 149.081 138.334 147.97C138.467 147.585 138.671 146.99 138.788 146.649C138.97 146.114 139.036 146.199 139.264 147.262C139.713 149.35 140.363 149.136 140.371 146.897C140.376 145.452 140.449 145.465 142.106 147.189C142.843 147.957 143.464 148.383 143.991 148.485C145.004 148.679 145.236 148.313 144.587 147.542C143.729 146.524 141.225 141.905 141.394 141.654C141.599 141.35 141.6 141.352 142.44 142.602C143.407 144.041 143.725 144.192 143.463 143.085L143.243 142.16L144.302 143.089C145.35 144.008 145.357 144.009 144.927 143.162L144.492 142.307L145.121 142.719C146.318 143.502 146.305 142.837 145.103 141.766C143.923 140.715 143.086 139.437 143.902 139.933C144.1 140.052 143.941 139.613 143.55 138.956C142.102 136.525 140.692 132.239 141.121 131.574C141.249 131.377 141.761 131.034 142.26 130.813C142.758 130.592 143.606 130.093 144.145 129.704C145.067 129.038 146.044 128.976 147.297 129.503C147.677 129.663 147.766 129.388 147.866 127.73C148.023 125.118 147.403 124.132 145.428 123.858Z" fill="white"/>
<path d="M27.4824 194.302C27.7515 193.876 28.4702 193.28 29.0797 192.978C31.3549 191.848 32.7079 192.44 34.396 195.305C35.468 197.123 35.5702 197.476 35.0559 197.581C33.3614 197.926 32.3768 198.693 31.8784 200.058C31.587 200.855 31.0478 201.99 30.6798 202.581C30.3117 203.172 30.0153 203.901 30.0213 204.201C30.0416 205.21 34.5685 208.71 37.8191 210.231C38.6976 210.642 39.1768 210.991 38.884 211.006C37.6722 211.071 39.4614 211.815 41.4506 212.075C43.4769 212.339 43.9629 213.03 42.1463 213.065L41.1911 213.083L42.2559 213.672C43.3098 214.254 43.3023 214.258 41.546 214.043L39.7713 213.826L40.6587 214.643C41.7214 215.62 41.2791 215.69 39.2389 214.869C37.467 214.156 37.4642 214.155 37.4642 214.622C37.4642 215.009 43.3807 218.074 45.0067 218.53C46.2377 218.875 46.2537 219.428 45.0483 219.951C44.4211 220.223 43.4649 220.22 42.1434 219.941C39.1743 219.315 39.0884 219.355 40.1082 220.88C41.6891 223.244 41.1574 223.937 39.2023 222.06C38.2064 221.104 38.0768 221.062 38.2646 221.757C38.3845 222.2 38.5915 222.973 38.7246 223.474C39.1093 224.921 38.2479 224.579 36.7273 222.682C35.1727 220.741 34.7176 220.835 35.3345 222.967C35.9369 225.05 35.4754 225.235 34.0638 223.478L32.8499 221.967L32.8499 223.176C32.8499 224.713 32.0857 224.762 31.143 223.287C30.536 222.336 30.3642 222.262 29.8644 222.735C29.3732 223.2 29.1808 223.172 28.5757 222.547C28.0301 221.984 27.7664 221.924 27.4462 222.289C26.8112 223.013 26.2107 222.86 25.9949 221.919C25.8479 221.278 25.6225 221.137 25.066 221.339C24.5275 221.534 24.3312 221.428 24.3312 220.943C24.3312 220.465 24.1339 220.352 23.6196 220.539C23.1436 220.711 22.8358 220.582 22.6907 220.15C22.5228 219.651 22.3624 219.61 21.9826 219.97C21.5967 220.335 21.4917 220.284 21.4917 219.734C21.4917 219.278 21.306 219.115 20.9593 219.267C20.6664 219.395 20.4268 219.313 20.4268 219.084C20.4268 218.855 20.2572 218.787 20.0499 218.934C19.8426 219.08 18.5506 217.898 17.1784 216.308C14.2732 212.941 13.3606 212.565 11.1117 213.806C9.96734 214.438 9.37209 215.12 8.80986 216.44C7.89588 218.586 5.98946 221.145 5.30478 221.145C4.69037 221.145 4.66908 220.665 5.25297 219.967C5.49717 219.675 5.02403 219.821 4.20233 220.291C3.38028 220.761 2.43399 221.145 2.09963 221.145C1.58887 221.145 1.62862 220.978 2.34632 220.107L3.20138 219.068L2.20754 219.499C0.906672 220.064 0.176195 220.032 1.08237 219.45C3.28799 218.035 6.40724 214.686 8.1273 211.885C13.4625 203.199 17.9344 198.868 24.3312 196.191C25.7954 195.579 27.2134 194.729 27.4824 194.302Z" fill="white"/>
</svg>
