<svg width="205" height="159" viewBox="0 0 205 159" fill="none" xmlns="http://www.w3.org/2000/svg">
<path d="M24.9234 134.332C25.1937 134.05 25.832 133.708 26.3418 133.573C28.2448 133.067 29.1807 133.727 30.0193 136.164C30.5518 137.711 30.5748 137.995 30.1679 137.995C28.8275 137.995 27.9608 138.425 27.371 139.384C27.0263 139.944 26.4409 140.723 26.0698 141.115C25.6987 141.507 25.3607 142.015 25.3189 142.243C25.178 143.013 28.0742 146.373 30.3076 148.031C30.9112 148.479 31.2212 148.818 30.9963 148.785C30.066 148.646 31.3097 149.489 32.7803 149.994C34.2785 150.508 34.5405 151.109 33.1553 150.854L32.427 150.72L33.1447 151.331C33.8549 151.937 33.8486 151.939 32.5479 151.504L31.2336 151.064L31.7812 151.821C32.437 152.728 32.0902 152.713 30.6677 151.774C29.4324 150.958 29.4303 150.957 29.358 151.311C29.2982 151.605 33.3173 154.849 34.4816 155.447C35.3631 155.9 35.2896 156.323 34.2931 156.533C33.7746 156.643 33.0488 156.492 32.0883 156.076C29.9301 155.14 29.8587 155.157 30.3971 156.473C31.2317 158.514 30.7206 158.958 29.5263 157.23C28.9179 156.35 28.826 156.298 28.861 156.854C28.8835 157.209 28.921 157.828 28.9445 158.229C29.0127 159.388 28.4112 158.995 27.5502 157.318C26.6699 155.604 26.3098 155.604 26.4481 157.32C26.5831 158.995 26.2039 159.064 25.4039 157.511L24.7159 156.175L24.5287 157.094C24.2906 158.261 23.7025 158.18 23.2151 156.913C22.9013 156.097 22.7823 156.014 22.3294 156.296C21.8843 156.573 21.7425 156.522 21.3796 155.954C21.0525 155.442 20.8615 155.355 20.5618 155.583C19.9673 156.035 19.535 155.825 19.5168 155.077C19.5044 154.568 19.355 154.426 18.9011 154.493C18.4619 154.557 18.3292 154.447 18.4043 154.078C18.4784 153.715 18.3459 153.599 17.9264 153.661C17.5382 153.718 17.3244 153.573 17.281 153.222C17.2308 152.817 17.1153 152.761 16.7712 152.975C16.4215 153.193 16.3496 153.138 16.4348 152.72C16.5054 152.374 16.3896 152.222 16.1027 152.283C15.8605 152.335 15.6913 152.236 15.7267 152.062C15.7622 151.888 15.6438 151.81 15.4637 151.889C15.2836 151.968 14.4853 150.87 13.6893 149.45C12.0042 146.443 11.3694 146.016 9.46893 146.611C8.50188 146.913 7.94429 147.339 7.31283 148.254C6.28622 149.743 4.44193 151.391 3.92189 151.285C3.45523 151.19 3.51343 150.822 4.06502 150.382C4.29571 150.198 3.91378 150.236 3.21687 150.466C2.51976 150.695 1.74145 150.841 1.4875 150.789C1.09956 150.71 1.15565 150.589 1.83571 150.038L2.64594 149.382L1.82437 149.555C0.748908 149.783 0.199044 149.645 0.977356 149.344C2.87176 148.611 5.75963 146.55 7.49982 144.689C12.8972 138.918 16.9644 136.321 22.2375 135.279C23.4444 135.04 24.6531 134.614 24.9234 134.332Z" fill="white"/>
<path fill-rule="evenodd" clip-rule="evenodd" d="M181.597 26.5417C181.332 26.5312 180.976 26.6011 180.805 26.6968C180.634 26.7926 179.99 26.8183 179.375 26.7541C176.686 26.4736 174.352 27.1207 170.917 29.0994C169.81 29.7375 168.121 30.3017 167.103 30.3737C166.685 30.4034 166.93 30.5512 167.48 30.6013L167.901 30.6397L167.416 30.8356C167.008 30.9999 166.964 31.0498 167.139 31.1454C167.254 31.2081 167.65 31.2534 168.018 31.2464C168.387 31.2391 168.576 31.2778 168.439 31.3321C168.11 31.4621 168.028 31.6307 168.239 31.7458C168.474 31.8741 169.601 31.3538 170.31 30.789C170.747 30.4417 171.077 30.3197 171.586 30.3174C172.587 30.3128 172.831 30.6127 173.206 32.3114C173.383 33.1137 173.609 33.7608 173.707 33.7495C173.805 33.7382 173.851 33.7932 173.808 33.8718C173.766 33.9502 173.833 34.0233 173.957 34.0342C174.104 34.0471 174.138 34.1377 174.054 34.294C173.952 34.4827 173.979 34.5198 174.179 34.4668C174.375 34.4147 174.423 34.4587 174.388 34.6614C174.358 34.8367 174.44 34.9383 174.635 34.9685C174.846 35.001 174.893 35.0764 174.805 35.2404C174.715 35.4067 174.763 35.4797 174.984 35.5138C175.212 35.5489 175.263 35.6394 175.195 35.8866C175.096 36.2496 175.273 36.4147 175.625 36.2853C175.802 36.2201 175.882 36.2901 175.965 36.5854C176.057 36.913 176.118 36.9586 176.372 36.8913C176.631 36.8226 176.677 36.8802 176.709 37.3199C176.76 38.0025 177.032 38.1287 177.315 37.6017L177.539 37.1871L177.676 37.9326C177.836 38.7996 178.029 38.8223 178.206 37.9956C178.389 37.1488 178.562 37.202 178.737 38.1585C178.909 39.094 179.141 39.3724 179.276 38.8042C179.323 38.6075 179.395 38.3038 179.435 38.1293C179.499 37.8561 179.536 37.8948 179.701 38.4091C180.025 39.4187 180.336 39.2807 180.23 38.174C180.162 37.4601 180.198 37.4626 181.102 38.2334C181.504 38.5764 181.831 38.7567 182.096 38.781C182.607 38.8274 182.703 38.6348 182.345 38.2859C181.871 37.8249 180.407 35.6658 180.478 35.5333C180.564 35.3733 180.565 35.3739 181.041 35.9503C181.59 36.614 181.755 36.6727 181.57 36.1387L181.417 35.6926L181.985 36.0994C182.548 36.502 182.552 36.5021 182.298 36.1049L182.041 35.7038L182.372 35.8764C183.002 36.2048 182.963 35.8766 182.316 35.4065C181.682 34.9451 181.205 34.3546 181.633 34.5595C181.736 34.609 181.636 34.3997 181.411 34.0942C180.576 32.964 179.669 30.9158 179.848 30.5661C179.902 30.4622 180.138 30.2678 180.373 30.1341C180.609 30.0003 181.003 29.712 181.25 29.4934C181.673 29.119 182.153 29.0404 182.798 29.2395C182.994 29.2999 183.024 29.1597 182.992 28.3354C182.941 27.0371 182.587 26.5805 181.597 26.5417Z" fill="white"/>
<path fill-rule="evenodd" clip-rule="evenodd" d="M134.049 28.5796C133.188 29.1252 131.191 32.0554 130.732 33.4463C130.527 34.0644 130.049 34.9429 129.225 36.216C128.256 37.7117 128.011 38.1813 127.989 38.5898C127.965 39.0197 127.88 39.1645 127.442 39.5178C126.957 39.9083 126.892 40.0469 126.464 41.5982C126.212 42.5125 125.899 43.8658 125.77 44.6058C125.51 46.0877 125.123 46.7448 124.437 46.8658C124.086 46.9279 123.885 46.804 123.006 45.9833C122.443 45.4582 121.927 44.9958 121.859 44.9556C121.791 44.9154 121.521 45.35 121.258 45.9212C120.745 47.0395 120.781 47.4175 121.415 47.5603C121.856 47.6597 121.806 47.8632 121.316 47.9603C121.019 48.0195 120.952 48.1258 120.807 48.7743C120.526 50.0342 120.369 51.4023 120.499 51.4729C120.566 51.5098 121.376 51.1794 122.299 50.7387C123.222 50.298 124.22 49.9293 124.517 49.9195C124.887 49.9073 125.53 50.1577 126.552 50.7122C129.203 52.1502 130.238 52.1761 132.391 50.8574C133.539 50.1547 133.796 50.0683 134.222 50.2434C134.757 50.4632 134.92 50.3528 134.764 49.8771C134.709 49.7117 134.702 49.3195 134.748 49.0061C134.843 48.3544 134.391 47.6237 133.813 47.4933C133.596 47.4446 133.05 47.494 132.599 47.603C131.311 47.9147 131.221 47.7517 132.017 46.5471C132.386 45.9879 133.208 44.97 133.843 44.2854C134.478 43.6008 135.106 42.8333 135.238 42.5798C135.37 42.3261 135.527 41.1164 135.587 39.8913C135.724 37.1167 135.827 36.1707 136.173 34.545C136.486 33.0705 136.428 32.7618 135.947 33.3467C135.761 33.5732 135.524 33.8564 135.421 33.976C134.997 34.4648 132.439 38.321 131.882 39.3098C131.524 39.946 131.801 39.2397 132.572 37.5497C133.281 35.9973 133.951 34.44 134.062 34.0891C134.343 33.1999 134.794 28.5053 134.608 28.4041C134.525 28.3585 134.273 28.4374 134.049 28.5796Z" fill="white"/>
<path fill-rule="evenodd" clip-rule="evenodd" d="M106.989 74.8131C105.464 74.5764 104.408 74.6913 103.443 75.1985C102.321 75.7878 100.204 77.5154 100.205 77.84C100.205 77.9731 100.515 78.2513 100.895 78.4583C101.717 78.9071 101.601 79.3406 100.713 79.1406C100.156 79.0154 98.3687 77.6873 97.4112 76.6872C97.115 76.3778 96.9597 76.4611 96.2533 77.3076C95.8043 77.8454 95.2863 78.4252 95.1024 78.596C94.8587 78.8218 94.8797 79.0037 95.1789 79.2622L95.5902 79.6179L95.1228 79.403C94.7826 79.2465 94.5791 79.33 94.3742 79.7103C93.9388 80.519 93.8748 82.6786 94.2721 83.1593C94.5572 83.504 94.868 83.5162 95.8169 83.221C97.3335 82.7488 100.635 82.4518 101.161 82.7402C101.383 82.8619 101.933 83.6845 102.383 84.5684C102.892 85.5665 103.317 86.1346 103.507 86.0671C103.964 85.9045 104.099 86.0565 103.957 86.5728C103.855 86.9437 104.198 87.3376 105.656 88.5263C107.427 89.9698 108.419 91.1653 108.193 91.5842C107.955 92.0264 108.772 95.401 109.609 97.4367C110.095 98.6186 111.064 100.535 111.763 101.695C112.462 102.855 113.205 104.354 113.415 105.027C113.625 105.7 113.87 106.223 113.961 106.189C114.409 106.025 114.527 100.02 114.245 91.8049C114.12 88.1809 114 87.3677 113.38 85.9772C112.984 85.0886 112.564 84.2439 112.447 84.1C112.082 83.6513 113.037 83.2087 114.101 83.3333L115.067 83.4464L115.02 81.8434C114.94 79.1879 113.906 78.5181 111.222 79.3835C109.852 79.8251 109.243 79.7086 108.784 78.918C108.568 78.5465 108.634 78.3222 109.196 77.5257C109.821 76.6388 109.838 76.5415 109.451 76.0473C108.918 75.3669 108.184 74.9986 106.989 74.8131Z" fill="white"/>
<path fill-rule="evenodd" clip-rule="evenodd" d="M203.927 2.97725C203.485 3.0977 203.008 3.43737 202.676 3.86674C202.417 4.20173 202.309 4.19911 202.328 3.85847C202.354 3.37743 201.738 3.97691 201.499 4.66493C201.379 5.01174 201.351 5.04278 201.254 4.93427C201.16 4.82765 201.092 4.89389 200.734 5.445C200.508 5.79324 200.254 6.25788 200.17 6.47742L200.017 6.87659L199.872 6.13721C199.586 4.67558 199.54 2.01514 199.785 1.12643C199.84 0.927633 199.821 0.895315 199.677 0.933681C199.431 0.998894 198.665 1.79757 198.255 2.4155C198.002 2.79758 197.879 2.92102 197.795 2.87524C197.701 2.82428 197.645 2.90168 197.49 3.29179C197.385 3.55529 197.26 3.99902 197.212 4.27794C197.125 4.7745 197.121 4.78325 196.977 4.7047C196.762 4.5874 196.694 4.79379 196.721 5.4848C196.742 6.00051 196.72 6.10052 196.588 6.10965C196.383 6.1237 196.309 6.50522 196.385 7.15601C196.434 7.57224 196.421 7.62857 196.27 7.63901C196.007 7.65695 195.994 7.77983 196.212 8.1812C196.322 8.38397 196.377 8.61501 196.334 8.69468C196.292 8.77439 196.298 8.89231 196.348 8.95691C196.399 9.02142 196.392 9.1384 196.333 9.21684C196.253 9.32486 196.284 9.39925 196.463 9.52379C196.64 9.64731 196.676 9.73068 196.607 9.85855C196.556 9.9523 196.55 10.0479 196.592 10.071C196.635 10.0942 196.637 10.1725 196.598 10.2451C196.503 10.4217 196.778 10.5604 197.153 10.5253C197.517 10.4912 197.556 10.579 197.288 10.8301C197.072 11.0326 197.015 11.0262 196.059 10.6914C195.712 10.5702 195.377 10.49 195.315 10.5131C195.174 10.5648 195.073 11.3174 195.163 11.6386C195.216 11.8255 195.272 11.8665 195.478 11.8708C195.854 11.8786 195.929 11.9571 195.668 12.068C195.471 12.1519 195.439 12.1987 195.455 12.3783C195.488 12.7487 195.78 14.0657 195.836 14.0963C195.866 14.1124 196.051 13.9706 196.249 13.7811C197.246 12.8237 197.755 12.4166 197.998 12.3817C198.142 12.3611 198.657 12.3876 199.143 12.4405C199.628 12.4935 200.204 12.5312 200.422 12.5244C201.236 12.4987 202.053 11.9978 202.65 11.1587C202.986 10.6853 203.139 10.5909 203.531 10.6117L203.815 10.6267L203.661 10.3703C203.576 10.2292 203.486 9.99454 203.46 9.84873C203.363 9.30738 202.658 9.19394 201.965 9.60839C201.402 9.94599 201.235 9.90065 201.694 9.53458C202.288 9.06058 202.913 7.93106 203.247 6.72515C203.396 6.19097 203.546 5.47924 203.581 5.14353C203.621 4.76716 203.774 4.21465 203.979 3.70262L204.312 2.87211L203.927 2.97725Z" fill="white"/>
</svg>
