<svg width="192" height="128" viewBox="0 0 192 128" fill="none" xmlns="http://www.w3.org/2000/svg">
<path d="M24.2863 101.806C24.5668 101.565 25.1989 101.302 25.6909 101.222C27.5277 100.923 28.3461 101.634 28.9069 104.013C29.2631 105.523 29.2581 105.793 28.8755 105.755C27.6151 105.629 26.7599 105.954 26.1157 106.804C25.7392 107.3 25.116 107.98 24.7303 108.315C24.3447 108.651 23.9795 109.098 23.9188 109.31C23.7144 110.023 26.1238 113.466 28.069 115.241C28.5947 115.72 28.8545 116.069 28.6462 116.017C27.7843 115.799 28.875 116.711 30.2107 117.325C31.5715 117.951 31.7617 118.543 30.483 118.172L29.8107 117.977L30.4284 118.622C31.0395 119.26 31.0335 119.261 29.8511 118.729L28.6563 118.19L29.1004 118.957C29.6323 119.874 29.3076 119.827 28.0579 118.807C26.9725 117.921 26.9706 117.92 26.8694 118.248C26.7858 118.519 30.2619 121.958 31.3009 122.632C32.0875 123.142 31.9789 123.534 31.0221 123.64C30.5244 123.694 29.856 123.484 28.9916 123.001C27.0496 121.916 26.9809 121.925 27.3642 123.218C27.9583 125.222 27.4361 125.593 26.4746 123.85C25.9847 122.962 25.9032 122.904 25.8842 123.433C25.8721 123.77 25.8495 124.358 25.8342 124.739C25.7899 125.839 25.2611 125.412 24.6081 123.748C23.9406 122.047 23.6019 122.014 23.5716 123.646C23.5421 125.24 23.179 125.27 22.5719 123.729L22.0498 122.403L21.7879 123.253C21.4549 124.332 20.9095 124.201 20.5695 122.959C20.3507 122.159 20.2466 122.07 19.7943 122.294C19.3499 122.513 19.2214 122.452 18.9332 121.882C18.6735 121.367 18.502 121.268 18.1989 121.455C17.5976 121.825 17.2106 121.587 17.2635 120.879C17.2994 120.397 17.1722 120.249 16.7391 120.27C16.3201 120.29 16.2057 120.173 16.3107 119.832C16.4143 119.496 16.3005 119.374 15.9003 119.393C15.5299 119.411 15.3424 119.254 15.3344 118.919C15.3251 118.531 15.2217 118.468 14.878 118.638C14.529 118.81 14.4664 118.752 14.5856 118.366C14.6844 118.045 14.5897 117.891 14.3142 117.922C14.0815 117.948 13.9317 117.838 13.9813 117.678C14.0309 117.517 13.9268 117.432 13.7501 117.49C13.5734 117.547 12.9253 116.437 12.3095 115.021C11.006 112.025 10.449 111.562 8.60629 111.945C7.66863 112.14 7.10458 112.489 6.42523 113.294C5.32073 114.603 3.43242 115.986 2.95331 115.837C2.52339 115.704 2.61251 115.362 3.17229 114.998C3.40641 114.846 3.04376 114.846 2.36696 114.998C1.68999 115.149 0.94451 115.213 0.710546 115.14C0.353144 115.029 0.417181 114.921 1.10813 114.465L1.93134 113.921L1.1426 114.008C0.110057 114.121 -0.39416 113.94 0.365876 113.729C2.21579 113.214 5.12398 111.54 6.93427 109.947C12.549 105.006 16.6162 102.936 21.6721 102.447C22.8293 102.335 24.0056 102.047 24.2863 101.806Z" fill="white"/>
<path fill-rule="evenodd" clip-rule="evenodd" d="M165.792 21.5253C165.544 21.4906 165.202 21.5231 165.032 21.5973C164.862 21.6717 164.255 21.6357 163.682 21.5174C161.18 21.0003 158.924 21.3922 155.51 22.9377C154.409 23.4361 152.768 23.8102 151.804 23.7827C151.408 23.7714 151.625 23.9339 152.138 24.0328L152.529 24.1086L152.055 24.2479C151.657 24.3648 151.61 24.4077 151.766 24.5145C151.868 24.5843 152.236 24.6643 152.583 24.6922C152.931 24.7199 153.105 24.7742 152.971 24.8126C152.649 24.9044 152.557 25.0559 152.744 25.1843C152.953 25.3274 154.061 24.942 154.781 24.4755C155.225 24.1887 155.546 24.1045 156.025 24.15C156.967 24.2396 157.168 24.5456 157.362 26.1841C157.454 26.958 157.605 27.5899 157.698 27.5884C157.792 27.587 157.83 27.6432 157.783 27.7134C157.735 27.7834 157.792 27.8587 157.907 27.8807C158.044 27.9067 158.068 27.9953 157.974 28.135C157.861 28.3035 157.882 28.341 158.075 28.3097C158.265 28.279 158.306 28.325 158.254 28.513C158.21 28.6757 158.277 28.7794 158.458 28.8261C158.653 28.8765 158.69 28.9521 158.592 29.0986C158.492 29.2472 158.53 29.3206 158.734 29.3735C158.946 29.428 158.986 29.5183 158.899 29.7452C158.771 30.0785 158.923 30.2511 159.265 30.1619C159.438 30.1169 159.506 30.1905 159.557 30.4771C159.613 30.7949 159.666 30.8437 159.912 30.804C160.161 30.7634 160.199 30.822 160.188 31.2401C160.172 31.8892 160.416 32.0338 160.732 31.5629L160.981 31.1926L161.04 31.9092C161.11 32.7425 161.289 32.782 161.533 32.0183C161.783 31.2362 161.941 31.3026 162.017 32.2219C162.09 33.121 162.283 33.4055 162.463 32.8819C162.526 32.7006 162.621 32.4207 162.676 32.2598C162.762 32.0079 162.792 32.0479 162.9 32.5489C163.11 33.5322 163.415 33.4311 163.419 32.3765C163.421 31.6963 163.456 31.7021 164.233 32.5144C164.579 32.8759 164.87 33.0767 165.117 33.1245C165.593 33.2162 165.702 33.0435 165.397 32.6805C164.995 32.2009 163.82 30.0257 163.899 29.9073C163.995 29.7643 163.996 29.7651 164.39 30.3538C164.844 31.0317 164.993 31.1025 164.87 30.5812L164.767 30.1457L165.264 30.5831C165.755 31.0158 165.759 31.0163 165.557 30.6176L165.353 30.2148L165.648 30.4088C166.21 30.7778 166.203 30.4644 165.639 29.9601C165.086 29.465 164.693 28.863 165.076 29.0965C165.169 29.1529 165.094 28.9459 164.91 28.6365C164.231 27.4914 163.57 25.4731 163.771 25.1598C163.831 25.0667 164.071 24.9054 164.305 24.8013C164.539 24.6971 164.937 24.462 165.19 24.2789C165.623 23.9652 166.081 23.9359 166.669 24.1844C166.847 24.2597 166.889 24.1302 166.936 23.3492C167.01 22.119 166.719 21.6548 165.792 21.5253Z" fill="white"/>
<path fill-rule="evenodd" clip-rule="evenodd" d="M122.886 18.973C122.025 19.4072 119.873 21.9856 119.311 23.2554C119.061 23.8197 118.53 24.6039 117.635 25.7282C116.584 27.0491 116.31 27.4694 116.251 27.8529C116.189 28.2564 116.095 28.3851 115.65 28.6775C115.158 29.0006 115.084 29.1254 114.536 30.5495C114.214 31.3888 113.794 32.6368 113.603 33.3231C113.22 34.6975 112.794 35.2813 112.138 35.3312C111.802 35.3569 111.625 35.2211 110.875 34.3641C110.395 33.8156 109.953 33.3307 109.892 33.2865C109.832 33.2421 109.537 33.627 109.237 34.1414C108.65 35.1489 108.649 35.509 109.231 35.7033C109.637 35.8385 109.571 36.0259 109.101 36.0716C108.816 36.0995 108.743 36.1936 108.546 36.7921C108.164 37.9549 107.889 39.2316 108.004 39.3103C108.064 39.3515 108.857 39.1156 109.766 38.7862C110.675 38.4568 111.648 38.2025 111.928 38.2211C112.277 38.2442 112.858 38.5409 113.767 39.1601C116.126 40.7662 117.097 40.8877 119.245 39.845C120.389 39.2893 120.64 39.232 121.024 39.4372C121.506 39.6948 121.67 39.6059 121.567 39.1423C121.532 38.981 121.562 38.6102 121.634 38.3187C121.784 37.7125 121.428 36.9804 120.896 36.803C120.697 36.7368 120.179 36.7321 119.744 36.7927C118.504 36.9661 118.434 36.8037 119.295 35.7414C119.695 35.2483 120.563 34.3647 121.224 33.778C121.885 33.1914 122.547 32.5258 122.695 32.2989C122.843 32.0719 123.104 30.9448 123.275 29.7942C123.662 27.188 123.848 26.3049 124.325 24.8028C124.758 23.4405 124.732 23.1436 124.225 23.6507C124.029 23.847 123.78 24.092 123.671 24.1952C123.227 24.6168 120.461 28.0166 119.845 28.8977C119.449 29.4646 119.775 28.8239 120.659 27.3012C121.47 25.9023 122.246 24.4954 122.383 24.1745C122.73 23.3615 123.593 18.9727 123.428 18.8598C123.354 18.8089 123.11 18.8598 122.886 18.973Z" fill="white"/>
<path fill-rule="evenodd" clip-rule="evenodd" d="M94.1002 58.0637C92.6892 57.6973 91.6848 57.7066 90.7299 58.0948C89.6205 58.5458 87.4677 59.9779 87.4382 60.2843C87.4261 60.41 87.692 60.7017 88.0292 60.9326C88.7603 61.4333 88.6112 61.8317 87.7944 61.5596C87.2825 61.3891 85.726 59.968 84.9191 58.9342C84.6695 58.6144 84.5157 58.6784 83.7723 59.4112C83.2999 59.8766 82.7586 60.3753 82.5697 60.5192C82.3194 60.7096 82.3222 60.8832 82.5794 61.1553L82.9329 61.5296L82.5135 61.2828C82.2082 61.1032 82.009 61.163 81.7809 61.5028C81.2958 62.2251 81.0339 64.2576 81.3625 64.7486C81.5983 65.1006 81.8895 65.1414 82.8093 64.9517C84.2796 64.6483 87.4116 64.6777 87.8793 64.9992C88.0766 65.1349 88.517 65.9629 88.8579 66.8395C89.2428 67.8292 89.5902 68.4054 89.7744 68.3595C90.2192 68.2488 90.3325 68.405 90.1509 68.8791C90.0204 69.2196 90.3058 69.6235 91.5659 70.8822C93.0962 72.4108 93.9173 73.6323 93.666 74.0066C93.4007 74.4016 93.8529 77.6633 94.45 79.6633C94.7969 80.8245 95.5292 82.7242 96.0778 83.8848C96.6262 85.0452 97.1851 86.5302 97.3195 87.185C97.4539 87.8395 97.6362 88.3561 97.7247 88.3331C98.1607 88.2196 98.8333 82.5633 99.3358 74.7825C99.5574 71.3502 99.5201 70.5713 99.0669 69.2008C98.7775 68.3249 98.4618 67.4882 98.3653 67.3414C98.0642 66.8836 99.003 66.5554 99.9922 66.7729L100.89 66.9703L100.995 65.4528C101.169 62.9389 100.259 62.2096 97.6539 62.7746C96.3248 63.0631 95.7626 62.8959 95.4047 62.1065C95.2366 61.7357 95.32 61.5302 95.9225 60.8311C96.5934 60.0526 96.6181 59.9623 96.3005 59.4596C95.8633 58.7674 95.2069 58.3509 94.1002 58.0637Z" fill="white"/>
<path fill-rule="evenodd" clip-rule="evenodd" d="M188.053 2.33392C187.627 2.40618 187.145 2.68197 186.793 3.05613C186.519 3.34805 186.418 3.33546 186.467 3.0157C186.537 2.56413 185.902 3.07218 185.613 3.69915C185.467 4.01519 185.437 4.04184 185.357 3.9304C185.278 3.82088 185.208 3.87707 184.82 4.36365C184.575 4.67112 184.292 5.08586 184.193 5.2852L184.012 5.64765L183.945 4.93619C183.813 3.52974 184.017 1.01425 184.331 0.198409C184.401 0.0159121 184.387 -0.0162933 184.247 0.00633168C184.01 0.0448311 183.215 0.72683 182.772 1.27167C182.499 1.60856 182.371 1.71347 182.296 1.66239C182.213 1.60553 182.153 1.67328 181.971 2.02697C181.848 2.26587 181.688 2.67294 181.617 2.93167C181.489 3.39227 181.484 3.40008 181.356 3.31244C181.165 3.18157 181.082 3.37004 181.043 4.02481C181.014 4.51347 180.984 4.60587 180.859 4.6021C180.665 4.59614 180.56 4.94932 180.571 5.57071C180.578 5.96816 180.56 6.02005 180.417 6.01574C180.168 6.00803 180.144 6.12278 180.312 6.52205C180.396 6.72377 180.427 6.94703 180.379 7.01824C180.332 7.0895 180.327 7.20138 180.368 7.26706C180.409 7.33267 180.392 7.44243 180.329 7.51098C180.243 7.60538 180.266 7.67854 180.422 7.81286C180.577 7.94606 180.603 8.02812 180.527 8.14235C180.47 8.22611 180.455 8.31568 180.493 8.34153C180.531 8.36737 180.526 8.44155 180.483 8.50637C180.377 8.66421 180.621 8.82083 180.978 8.82288C181.323 8.82482 181.352 8.91138 181.076 9.12325C180.854 9.29414 180.801 9.28281 179.933 8.87709C179.619 8.73013 179.312 8.62299 179.25 8.63894C179.113 8.67459 178.948 9.37544 179.003 9.68707C179.035 9.86846 179.083 9.9124 179.277 9.93584C179.629 9.97836 179.693 10.0596 179.438 10.1398C179.244 10.2005 179.21 10.2416 179.208 10.4126C179.204 10.7653 179.356 12.0358 179.406 12.0699C179.432 12.088 179.62 11.9715 179.823 11.8111C180.851 11.0011 181.367 10.6645 181.599 10.6544C181.736 10.6485 182.218 10.7217 182.67 10.8173C183.121 10.9128 183.659 11.0024 183.865 11.0165C184.633 11.0686 185.448 10.6725 186.087 9.93642C186.448 9.52113 186.6 9.44631 186.968 9.50276L187.233 9.54362L187.112 9.28708C187.046 9.14598 186.982 8.91599 186.972 8.77594C186.931 8.25591 186.278 8.08263 185.589 8.40888C185.027 8.67465 184.875 8.61622 185.34 8.31376C185.944 7.92213 186.637 6.91459 187.064 5.80773C187.253 5.31743 187.461 4.65974 187.526 4.3462C187.598 3.99468 187.793 3.48749 188.034 3.02347L188.425 2.27084L188.053 2.33392Z" fill="white"/>
</svg>
