<svg width="161" height="80" viewBox="0 0 161 80" fill="none" xmlns="http://www.w3.org/2000/svg">
<path d="M20.3782 61.4076C20.6249 61.2513 21.1489 61.118 21.5425 61.1117C23.0119 61.0882 23.5702 61.7383 23.7364 63.666C23.8421 64.8899 23.8073 65.101 23.5127 65.0273C22.5422 64.784 21.8368 64.9405 21.2363 65.5323C20.8853 65.878 20.3206 66.3394 19.9809 66.5578C19.6413 66.7762 19.3047 67.0848 19.2331 67.2438C18.9918 67.7789 20.4809 70.752 21.798 72.3651C22.154 72.801 22.317 73.1042 22.1603 73.0392C21.5118 72.7694 22.2598 73.6089 23.2333 74.2433C24.225 74.8896 24.306 75.3746 23.3492 74.9379L22.8461 74.7082L23.255 75.284C23.6596 75.8541 23.6548 75.8542 22.7918 75.3015L21.9197 74.7429L22.1791 75.394C22.4899 76.1735 22.2415 76.0998 21.3816 75.1573C20.6348 74.3388 20.6334 74.3379 20.5169 74.5832C20.4205 74.7861 22.7436 77.8783 23.4783 78.5254C24.0347 79.015 23.905 79.3096 23.1453 79.2825C22.7502 79.2681 22.2519 79.0269 21.6317 78.5495C20.2383 77.4768 20.1836 77.4762 20.3353 78.5327C20.5703 80.1709 20.1199 80.4017 19.5678 78.9261C19.2866 78.1744 19.2295 78.1198 19.1542 78.5317C19.1062 78.7947 19.0213 79.2524 18.9658 79.5489C18.8055 80.4055 18.441 80.0104 18.1211 78.6325C17.7939 77.2236 17.5331 77.1588 17.3228 78.4337C17.1176 79.6785 16.8303 79.6605 16.5322 78.3837L16.2757 77.2857L15.974 77.9209C15.5904 78.7284 15.1792 78.5629 15.0555 77.5514C14.976 76.8999 14.9048 76.8179 14.5259 76.9414C14.1535 77.0625 14.06 76.9997 13.9001 76.5198C13.7559 76.0873 13.6334 75.9895 13.3751 76.1012C12.8629 76.3227 12.5878 76.0916 12.71 75.5432C12.7931 75.1698 12.7107 75.0394 12.3699 75.0059C12.0402 74.9733 11.9642 74.8686 12.0852 74.6138C12.2046 74.3625 12.1296 74.2542 11.8146 74.2232C11.5233 74.1944 11.3947 74.0498 11.4268 73.7865C11.4637 73.4821 11.3902 73.4205 11.1022 73.5142C10.8097 73.6095 10.7675 73.5566 10.9049 73.2675C11.0186 73.0279 10.9624 72.8959 10.7435 72.8888C10.5587 72.8827 10.4542 72.7795 10.5113 72.6593C10.5685 72.5389 10.4968 72.4609 10.3521 72.4857C10.2075 72.5106 9.82802 71.5662 9.50867 70.3871C8.83273 67.8903 8.45033 67.464 6.96665 67.5531C6.21166 67.5985 5.73101 67.8072 5.10814 68.3599C4.09545 69.2586 2.46181 70.1255 2.10446 69.9539C1.78379 69.8 1.89252 69.5424 2.37148 69.3219C2.57179 69.2297 2.28847 69.1878 1.74229 69.2289C1.19603 69.2698 0.606145 69.2348 0.431638 69.151C0.16506 69.0231 0.22754 68.9452 0.819582 68.6672L1.52495 68.336L0.898734 68.3133C0.0789193 68.284 -0.294349 68.0842 0.323709 68.0057C1.82804 67.8148 4.29193 66.8365 5.88864 65.7959C10.8408 62.5692 14.2556 61.4143 18.2621 61.6106C19.1792 61.6555 20.1314 61.5643 20.3782 61.4076Z" fill="white"/>
<path fill-rule="evenodd" clip-rule="evenodd" d="M140.129 14.741C139.939 14.6853 139.668 14.6716 139.527 14.7103C139.385 14.7491 138.915 14.6513 138.481 14.4929C136.585 13.8011 134.778 13.8496 131.933 14.6689C131.016 14.9331 129.691 15.0381 128.941 14.9061C128.632 14.8519 128.783 15.0039 129.172 15.1402L129.47 15.2445L129.083 15.2992C128.759 15.3452 128.718 15.3735 128.827 15.4749C128.899 15.5414 129.177 15.6461 129.446 15.7078C129.714 15.7694 129.844 15.8318 129.734 15.8465C129.472 15.8815 129.383 15.9896 129.515 16.1117C129.662 16.2477 130.572 16.0728 131.188 15.79C131.567 15.6161 131.828 15.587 132.197 15.6776C132.923 15.8557 133.045 16.1184 133.009 17.4241C132.992 18.0408 133.038 18.5531 133.111 18.5627C133.184 18.5723 133.207 18.6206 133.163 18.6702C133.118 18.7197 133.153 18.7851 133.241 18.8155C133.345 18.8516 133.353 18.9237 133.264 19.0223C133.156 19.1414 133.169 19.1732 133.323 19.1709C133.475 19.1685 133.501 19.2092 133.44 19.3506C133.386 19.4729 133.427 19.5618 133.563 19.6192C133.71 19.6811 133.73 19.7445 133.637 19.848C133.542 19.953 133.563 20.0148 133.717 20.0797C133.876 20.1466 133.896 20.2219 133.802 20.3897C133.665 20.6361 133.763 20.7886 134.041 20.7581C134.182 20.7427 134.226 20.8081 134.233 21.0384C134.241 21.2938 134.277 21.338 134.473 21.3351C134.673 21.3319 134.695 21.3821 134.639 21.7084C134.553 22.215 134.726 22.3562 135.027 22.0236L135.264 21.762L135.228 22.3301C135.187 22.9908 135.323 23.0423 135.601 22.4721C135.886 21.8881 136.002 21.9583 135.956 22.687C135.911 23.3997 136.029 23.6447 136.229 23.2551C136.299 23.1203 136.406 22.9121 136.467 22.7923C136.562 22.6047 136.582 22.6396 136.608 23.0443C136.661 23.8387 136.91 23.7944 137.034 22.9688C137.114 22.4363 137.14 22.4448 137.654 23.1701C137.883 23.4929 138.088 23.6836 138.275 23.7494C138.636 23.8757 138.741 23.7529 138.545 23.4337C138.285 23.0119 137.616 21.1733 137.691 21.0897C137.783 20.9887 137.783 20.9894 138.024 21.4957C138.301 22.0787 138.409 22.1513 138.373 21.7288L138.342 21.3759L138.68 21.7754C139.015 22.1708 139.017 22.1715 138.905 21.836L138.792 21.4972L139.001 21.683C139.397 22.0364 139.428 21.7902 139.045 21.3305C138.669 20.8792 138.431 20.3626 138.704 20.5895C138.769 20.6442 138.735 20.4736 138.627 20.2102C138.227 19.2354 137.941 17.5786 138.134 17.3563C138.191 17.2902 138.398 17.1914 138.592 17.1367C138.787 17.0819 139.125 16.9433 139.343 16.8288C139.717 16.6327 140.079 16.6623 140.51 16.9243C140.641 17.0038 140.688 16.9071 140.814 16.3007C141.012 15.3456 140.838 14.9486 140.129 14.741Z" fill="white"/>
<path fill-rule="evenodd" clip-rule="evenodd" d="M106.893 7.82435C106.172 8.06589 104.195 9.83897 103.611 10.7691C103.351 11.1825 102.846 11.7359 102.019 12.5141C101.046 13.4283 100.784 13.7261 100.694 14.0197C100.599 14.3286 100.511 14.4187 100.13 14.5967C99.7088 14.7935 99.6366 14.8827 99.046 15.9354C98.6979 16.5559 98.2269 17.4854 97.9991 18.001C97.543 19.0337 97.1435 19.4423 96.6251 19.4062C96.3596 19.3878 96.2367 19.2611 95.7485 18.5038C95.4361 18.0192 95.1462 17.5887 95.1042 17.5471C95.0621 17.5055 94.7878 17.7732 94.4945 18.1417C93.9205 18.8636 93.8781 19.1455 94.3112 19.3644C94.6129 19.5169 94.5399 19.6561 94.1677 19.6381C93.9413 19.6272 93.874 19.6926 93.6517 20.1389C93.2199 21.0058 92.8591 21.9744 92.9399 22.0492C92.9822 22.0884 93.6286 21.9945 94.3766 21.8406C95.1245 21.6868 95.9139 21.5991 96.1308 21.6458C96.4006 21.7039 96.8209 22.0029 97.4605 22.5921C99.1201 24.1205 99.8648 24.3269 101.662 23.7563C102.62 23.4522 102.822 23.436 103.099 23.6407C103.447 23.8978 103.585 23.847 103.558 23.4721C103.548 23.3416 103.614 23.0546 103.704 22.8345C103.891 22.377 103.696 21.7626 103.3 21.5627C103.152 21.488 102.748 21.425 102.402 21.4227C101.412 21.4163 101.377 21.2812 102.171 20.5477C102.54 20.2073 103.319 19.6146 103.903 19.2308C104.486 18.8471 105.08 18.4016 105.221 18.2409C105.363 18.08 105.696 17.2271 105.961 16.3453C106.561 14.3483 106.807 13.6778 107.352 12.5559C107.846 11.5384 107.859 11.3029 107.405 11.642C107.23 11.7732 107.007 11.9366 106.91 12.005C106.515 12.2844 103.965 14.6305 103.383 15.25C103.009 15.6487 103.337 15.1842 104.201 14.0927C104.995 13.0899 105.762 12.0768 105.906 11.8411C106.27 11.2441 107.446 7.90519 107.33 7.79791C107.278 7.7495 107.081 7.76135 106.893 7.82435Z" fill="white"/>
<path fill-rule="evenodd" clip-rule="evenodd" d="M79.9315 35.1454C78.8709 34.6967 78.0849 34.5889 77.2945 34.7835C76.376 35.0097 74.53 35.8847 74.472 36.1214C74.4481 36.2184 74.6226 36.4774 74.8597 36.6969C75.3737 37.1729 75.2116 37.4678 74.6045 37.1611C74.224 36.9689 73.1703 35.6773 72.6579 34.7751C72.4994 34.496 72.3719 34.5285 71.7073 35.0173C71.2849 35.3277 70.805 35.6563 70.6409 35.7474C70.4236 35.8678 70.4058 36.0042 70.5758 36.2467L70.8092 36.5804L70.5097 36.3391C70.2917 36.1634 70.1292 36.1874 69.912 36.4274C69.4504 36.9377 69.0134 38.4997 69.2141 38.9219C69.3581 39.2247 69.5809 39.29 70.3214 39.2468C71.5049 39.1777 73.949 39.5597 74.2777 39.8651C74.4163 39.994 74.6657 40.693 74.8319 41.4188C75.0195 42.2382 75.2251 42.7293 75.3743 42.7144C75.7345 42.6787 75.8052 42.814 75.6091 43.1646C75.4681 43.4163 75.645 43.7654 76.4858 44.8958C77.5068 46.2686 78.0087 47.3195 77.7695 47.5838C77.5171 47.8629 77.4975 50.4696 77.7354 52.1047C77.8738 53.054 78.2288 54.626 78.5248 55.5979C78.8206 56.5698 79.0876 57.797 79.1177 58.3253C79.1479 58.8534 79.2313 59.2789 79.3031 59.271C79.6568 59.2322 80.829 54.8786 82.1112 48.8414C82.6768 46.1783 82.7366 45.5639 82.5393 44.4384C82.4132 43.7192 82.2622 43.0276 82.2036 42.9015C82.0207 42.5085 82.7918 42.3589 83.5399 42.6427L84.2191 42.9002L84.4746 41.7236C84.8977 39.7743 84.27 39.0988 82.1698 39.2428C81.0983 39.3164 80.6781 39.1211 80.4886 38.4617C80.3997 38.152 80.4884 38.0006 81.0391 37.522C81.6523 36.9891 81.682 36.9212 81.4913 36.491C81.2287 35.8987 80.7635 35.4972 79.9315 35.1454Z" fill="white"/>
<path fill-rule="evenodd" clip-rule="evenodd" d="M159.718 2.25946C159.376 2.26718 158.969 2.42808 158.651 2.68082C158.403 2.87801 158.325 2.85655 158.4 2.61175C158.507 2.26603 157.952 2.59118 157.654 3.04916C157.504 3.28 157.478 3.29751 157.428 3.20101C157.379 3.10617 157.318 3.1422 156.959 3.47884C156.732 3.69155 156.464 3.98409 156.364 4.12883L156.181 4.39201L156.21 3.82704C156.267 2.71017 156.715 0.763244 157.053 0.16012C157.129 0.0252082 157.122 -0.00162703 157.01 7.40693e-05C156.82 0.00304717 156.121 0.446154 155.713 0.822189C155.46 1.0547 155.348 1.12223 155.296 1.07367C155.237 1.01962 155.182 1.06575 155 1.32193C154.876 1.49497 154.705 1.79558 154.62 1.99005C154.468 2.33623 154.463 2.34174 154.373 2.25842C154.238 2.13401 154.152 2.27215 154.047 2.78055C153.968 3.15998 153.934 3.22898 153.837 3.21169C153.686 3.1848 153.564 3.4494 153.501 3.93737C153.461 4.24948 153.441 4.28806 153.33 4.2683C153.136 4.23376 153.104 4.32091 153.19 4.65284C153.233 4.82053 153.231 4.99889 153.186 5.04924C153.14 5.09963 153.124 5.18669 153.148 5.24285C153.173 5.29896 153.147 5.38294 153.09 5.42949C153.012 5.49359 153.022 5.55349 153.128 5.67662C153.234 5.79872 153.245 5.86598 153.172 5.94667C153.119 6.00583 153.097 6.07427 153.123 6.09884C153.15 6.12341 153.138 6.18097 153.096 6.22675C152.995 6.33825 153.169 6.489 153.447 6.53143C153.717 6.57254 153.729 6.6436 153.49 6.77801C153.297 6.88644 153.257 6.8715 152.625 6.45421C152.396 6.30306 152.168 6.18391 152.118 6.18937C152.007 6.2016 151.798 6.73162 151.805 6.98204C151.809 7.12779 151.842 7.16777 151.991 7.20836C152.261 7.28201 152.302 7.35291 152.093 7.38648C151.935 7.41185 151.903 7.44007 151.882 7.57386C151.839 7.84973 151.812 8.86226 151.847 8.89469C151.866 8.91184 152.026 8.84215 152.203 8.73985C153.099 8.22305 153.541 8.01865 153.723 8.03729C153.831 8.04836 154.199 8.16099 154.541 8.28756C154.883 8.41417 155.293 8.54601 155.452 8.58058C156.046 8.70939 156.728 8.49252 157.312 7.98928C157.642 7.70533 157.769 7.66414 158.05 7.75047L158.253 7.81292L158.187 7.5981C158.152 7.47995 158.128 7.29254 158.136 7.1816C158.164 6.76966 157.674 6.55908 157.097 6.73559C156.628 6.8794 156.516 6.81615 156.914 6.63263C157.43 6.39501 158.087 5.68521 158.547 4.86715C158.751 4.50479 158.989 4.01343 159.075 3.77524C159.172 3.50821 159.383 3.13329 159.624 2.79744L160.016 2.25271L159.718 2.25946Z" fill="white"/>
</svg>
