<svg width="53" height="60" viewBox="0 0 53 60" fill="none" xmlns="http://www.w3.org/2000/svg">
<path d="M52.9917 44.635V60H48.187V49.0846H4.8744L4.80477 60H0L0.0696343 44.635H6.19746V20.927C6.19746 14.1599 8.00795 8.99189 11.6289 5.42294C15.2963 1.80765 20.2636 0 26.5307 0C32.7978 0 37.7418 1.80765 41.3628 5.42294C45.0302 8.99189 46.8639 14.1599 46.8639 20.927V44.635H52.9917ZM41.711 44.635V20.4403C41.711 15.2028 40.3647 11.263 37.6722 8.62109C35.0261 5.93279 31.3122 4.58864 26.5307 4.58864C21.7027 4.58864 17.9424 5.93279 15.2499 8.62109C12.6038 11.263 11.2808 15.2028 11.2808 20.4403V44.635H41.711Z" fill="white"/>
<path d="M35.0579 18.4103C34.3766 16.4189 34.2324 16.1931 33.5572 16.06C33.171 15.9841 32.5129 15.9795 32.0945 16.0503C30.5421 16.3129 29.8438 17.1775 28.4432 20.5716C26.7414 24.6954 26.0032 25.8518 24.3902 26.9211C23.6907 27.3849 22.4669 28.6409 21.6706 29.7123C18.0579 34.5736 17.5163 35.3524 16.8968 36.5753C16.5344 37.2908 15.0474 39.3024 13.5926 41.0457C10.1181 45.2083 10.1135 45.2153 10.0183 46.4033C9.92575 47.556 10.0709 47.6554 12.2623 47.9433C13.5284 48.1095 14.2285 47.9562 17.2105 46.8604C21.2087 45.3914 21.813 45.2764 23.275 45.7043C24.0004 45.9166 24.8813 45.9208 26.012 45.7176C26.9288 45.5525 27.8167 45.505 27.9849 45.6116C28.5679 45.9808 33.7023 45.6209 34.1484 45.1791C34.6331 44.6997 34.5923 44.6886 32.5963 44.7572C30.6808 44.8229 29.6603 43.9812 29.6603 42.3352C29.6603 41.3273 29.8812 41.0246 31.9585 39.1847C36.0154 35.5912 36.7414 32.9077 35.339 26.6916C34.2926 22.0538 34.065 20.1997 34.508 19.9287C34.7016 19.8103 35.0846 19.8946 35.3597 20.116C35.8 20.4701 35.8304 20.4463 35.6132 19.916C35.4778 19.5848 35.2277 18.9072 35.0579 18.4103Z" fill="white"/>
</svg>
